<svg xmlns="http://www.w3.org/2000/svg" xmlns:xlink="http://www.w3.org/1999/xlink" width="728" height="708" viewBox="0 0 728 708">
  <defs>
    <style>
      .cls-1, .cls-2 {
        fill: none;
        stroke-miterlimit: 10;
      }

      .cls-1 {
        stroke-width: 3px;
        stroke: url(#linear-gradient);
      }

      .cls-2 {
        stroke: url(#linear-gradient-2);
      }

      .cls-3 {
        fill: url(#linear-gradient-3);
      }

      .cls-4 {
        fill: url(#linear-gradient-4);
      }

      .cls-5 {
        fill: url(#linear-gradient-5);
      }

      .cls-6 {
        fill: url(#linear-gradient-6);
      }

      .cls-7 {
        fill: url(#linear-gradient-7);
      }

      .cls-8 {
        fill: url(#linear-gradient-8);
      }

      .cls-9 {
        fill: url(#linear-gradient-9);
      }
    </style>
    <linearGradient id="linear-gradient" x1="31" y1="357.5" x2="714" y2="357.5" gradientUnits="userSpaceOnUse">
      <stop offset="0" stop-color="#c3a53e"/>
      <stop offset="0.05" stop-color="#d4bd40"/>
      <stop offset="0.11" stop-color="#e5d343"/>
      <stop offset="0.16" stop-color="#eee244"/>
      <stop offset="0.21" stop-color="#f2e743"/>
      <stop offset="0.27" stop-color="#e7d540"/>
      <stop offset="0.64" stop-color="#aa782c"/>
      <stop offset="0.8" stop-color="#915224"/>
      <stop offset="1" stop-color="#a68a38"/>
    </linearGradient>
    <linearGradient id="linear-gradient-2" x1="57.26" y1="542.57" x2="694.11" y2="542.57" xlink:href="#linear-gradient"/>
    <linearGradient id="linear-gradient-3" x1="156.67" y1="1551.47" x2="156.67" y2="1590.85" gradientTransform="translate(0 -1355.26)" xlink:href="#linear-gradient"/>
    <linearGradient id="linear-gradient-4" x1="342.3" y1="1411.67" x2="342.3" y2="1756.9" gradientTransform="translate(0 -1355.26)" xlink:href="#linear-gradient"/>
    <linearGradient id="linear-gradient-5" x1="130.05" y1="391.58" x2="130.05" y2="306.95" gradientTransform="matrix(1, 0, 0, -1, 0, 708.11)" xlink:href="#linear-gradient"/>
    <linearGradient id="linear-gradient-6" x1="227.82" y1="391.58" x2="227.82" y2="306.97" gradientTransform="matrix(1, 0, 0, -1, 0, 708.11)" xlink:href="#linear-gradient"/>
    <linearGradient id="linear-gradient-7" x1="463.01" y1="391.58" x2="463.01" y2="306.95" gradientTransform="matrix(1, 0, 0, -1, 0, 708.11)" xlink:href="#linear-gradient"/>
    <linearGradient id="linear-gradient-8" x1="560.72" y1="393.1" x2="560.72" y2="305.49" gradientTransform="matrix(1, 0, 0, -1, 0, 708.11)" xlink:href="#linear-gradient"/>
    <linearGradient id="linear-gradient-9" x1="656.93" y1="391.58" x2="656.93" y2="306.95" gradientTransform="matrix(1, 0, 0, -1, 0, 708.11)" xlink:href="#linear-gradient"/>
  </defs>
  <title>root2</title>
  <g id="Layer_2" data-name="Layer 2">
    <circle class="cls-1" cx="372.5" cy="357.5" r="340"/>
    <polygon class="cls-2" points="693.5 427.5 666.5 418.5 684.5 402.5 674.5 402.5 625.5 446.5 451.5 422.5 477.5 408.5 540.5 431.5 542.5 427.5 516.5 417.5 603.5 407.5 612.5 430.5 616.5 430.5 608.5 406.5 630.5 424.5 634.5 421.5 609.5 402.5 506.5 413.5 474.5 402.5 440.5 420.5 354.5 408.5 353.5 399.5 340.5 399.5 340.5 409.5 226.5 430.5 226.5 430.5 185.5 405.5 182.5 409.5 192.5 416.5 180.5 429.5 157.5 412.5 141.5 426.5 63.5 414.5 62.5 417.5 99.5 424.5 69.5 445.5 73.5 449.5 104.5 426.5 135.5 431.5 123.5 443.5 127.5 446.5 157.5 419.5 181.5 435.5 196.5 419.5 218.31 432.08 58 463 61 469 102.5 457.5 76.5 502.5 81.5 512.5 105.5 461.5 96.5 538.5 101.5 547.5 110.5 459.5 186.5 445.5 166.5 504.5 131.5 487.5 139.5 471.5 135.5 468.5 126.5 484.5 120.5 481.5 118.5 486.5 147.5 500.5 130.5 531.5 135.5 533.5 151.5 503.5 163.5 510.5 154.5 540.5 125.5 561.5 129.5 565.5 156.5 547.5 149.5 597.5 153.5 600.5 161.5 547.5 169.5 604.5 176.5 602.5 163.5 541.5 167.5 524.5 203.5 549.5 207.5 604.5 190.5 614.5 194.5 618.5 210.5 609.5 239.5 648.5 246.5 644.5 213.5 604.5 210.5 547.5 168.5 519.5 193.5 445.5 262.5 431.5 246.5 482.5 218.5 467.5 226.5 455.5 221.5 451.5 209.5 470.5 224.5 477.5 216.5 491.5 221.5 495.5 230.5 478.5 245.5 487.5 239.5 501.5 244.5 504.5 268.5 430.5 340.5 417.5 338.5 448.5 279.5 458.5 275.5 535.5 219.5 524.5 218.5 531.5 272.5 541.5 229.5 600.5 235.5 604.5 281.5 543.5 258.5 617.5 265.5 618.5 289.5 542.5 289.5 466.5 338.5 457.5 338.5 484.5 322.5 515.5 304.5 499.5 299.5 504.5 318.5 519.5 297.5 555.5 281.5 625.5 258.5 652.5 263.5 656.5 282.5 633.5 284.5 670.5 291.5 670.5 286.5 626.5 302.5 558.5 312.5 604.5 319.5 602.5 308.5 552.5 318.5 532.5 329.5 542.5 333.5 535.5 322.5 526.5 340.5 494.5 342.5 545.5 331.5 590.5 322.5 594.5 323.5 598.5 332.5 595.5 332.5 614.5 338.5 614.5 337.5 592.5 345.5 559.5 345.5 613.5 318.5 655.5 298.5 657.5 299.5 663.5 317.5 661.5 308.5 675.5 315.5 678.5 345.5 624.5 345.5 638.5 323.5 674.5 329.5 678.5 347.5 645.5 345.5 681.5 351.5 681.5 351.5 642.5 361.5 681.5 369.5 681.5 356.5 637.5 373.5 671.5 381.5 666.5 359.5 633.5 359.5 621.5 402.5 649.5 392.5 672.5 397.5 676.5 406.5 653.5 419.5 685.5 424.5 683.5 412.5 653.5 448.5 682.5 453.5 675.5 358.5 612.5 356.5 587.5 390.5 616.5 394.5 610.5 357.5 578.5 359.5 519.5 379.5 560.5 382.5 593.5 424.5 629.5 421.5 645.5 428.5 647.5 431.5 626.5 388.5 594.5 433.5 622.5 449.5 614.5 444.5 607.5 432.5 615.5 390.5 590.5 387.5 568.5 403.5 590.5 409.5 586.5 383.5 556.5 360.5 508.5 355.5 417.5 413.5 427.5 432.5 482.5 413.5 507.5 391.5 469.5 414.5 448.5 410.5 443.5 365.5 484.5 368.5 489.5 387.5 474.5 408.5 511.5 388.5 538.5 417.5 597.5 480.5 588.5 480.5 584.5 421.5 592.5 408.5 570.5 482.5 578.5 484.5 570.5 458.5 569.5 484.5 557.5 478.5 552.5 449.5 566.5 406.5 564.5 394.5 540.5 425.5 502.5 433.5 518.5 440.5 515.5 429.5 496.5 438.5 483.5 419.5 427.5 460.5 433.5 472.5 499.5 441.5 558.5 446.5 562.5 461.5 531.5 466.5 549.5 470.5 548.5 465.5 526.5 479.5 537.5 482.5 531.5 466.5 522.5 476.5 502.5 497.5 543.5 501.5 538.5 476.5 491.5 466.5 433.5 499.5 437.5 512.5 540.5 480.5 612.5 484.5 613.5 515.5 547.5 515.5 553.5 476.5 670.5 485.5 672.5 519.5 559.5 526.5 651.5 536.5 644.5 526.5 585.5 559.5 617.5 562.5 608.5 525.5 570.5 519.5 518.5 546.5 536.5 549.5 527.5 516.5 505.5 509.5 440.5 562.5 445.5 589.5 494.5 542.5 557.5 566.5 603.5 571.5 598.5 549.5 557.5 567.5 536.5 571.5 582.5 576.5 583.5 571.5 537.5 589.5 596.5 593.5 594.5 574.5 533.5 604.5 589.5 608.5 585.5 577.5 531.5 617.5 572.5 622.5 566.5 576.5 526.5 579.5 522.5 619.5 530.5 622.5 524.5 581.5 517.5 598.5 495.5 570.5 446.5 622.5 453.5 646.5 499.5 620.5 550.5 627.5 552.5 650.5 506.5 657.5 524.5 663.5 517.5 631.5 452.5 684.5 463.5 684.5 457.5 633.5 447.5 662.5 425.5 676.5 449.5 682.5 445.5 665.5 423.5 691.5 434.5 693.5 427.5"/>
    <g>
      <path class="cls-3" d="M172.68,218.58h0a2.67,2.67,0,0,0-2.58-2.75h-.76a2.62,2.62,0,0,0,2.65-2.62h0a2.81,2.81,0,0,0-.31-1.28,2.67,2.67,0,0,0-2.38-1.46h-1a2.64,2.64,0,0,0,2.66-2.62v0h0a2.65,2.65,0,0,0-2.63-2.66h-1.8a2.66,2.66,0,0,0-.52-3.71,2.72,2.72,0,0,0-1.6-.53h-5.13v-4a.73.73,0,0,0-.71-.71h-3a.7.7,0,0,0-.7.71h0v4h-5.77a2.66,2.66,0,0,0-2.62,2.64h0a2.73,2.73,0,0,0,.54,1.6h-1.74a2.65,2.65,0,0,0,0,5.3h-1a2.76,2.76,0,0,0-2.67,2.83,2.63,2.63,0,0,0,2.64,2.59h-1.09a2.67,2.67,0,0,0,0,5.32h.81a2.66,2.66,0,0,0,0,5.31h1.89a2.74,2.74,0,0,0-2,4.66,2.63,2.63,0,0,0,1.89.78h.84a2.52,2.52,0,0,0-.22,1.08h0a2.66,2.66,0,0,0,2.66,2.65h15.83a2.67,2.67,0,0,0,2.67-2.65h0a2.88,2.88,0,0,0-.24-1.08h.4a2.64,2.64,0,0,0,2.67-2.61v0h0a2.75,2.75,0,0,0-2.75-2.75h1.9a2.66,2.66,0,0,0,2.65-2.65h0a2.65,2.65,0,0,0-2.65-2.65H170a2.66,2.66,0,0,0,2.74-2.59h0Z"/>
      <path class="cls-4" d="M547.7,189.6a3.68,3.68,0,0,0,0-.47,4,4,0,0,0,0-.49l-.48-.12-.53-.11-.3-.07c-.11,0-.11.11-.2.12-.53.39-1.26.87-2,1.38a15.64,15.64,0,0,1-2.1,1.11s-.18,0-.21.1,0,.2-.09.28v.09a37.12,37.12,0,0,1-10.12,1.07l-2-.08.15-.09c.44-.2.88-.44,1.38-.63,1.83-.82,3.72-1.55,5.63-2.31.95-.37,1.91-.75,2.86-1.17s1.91-.85,2.85-1.37l1.37-.74,1.38-.83.66-.45a1.47,1.47,0,0,0,.59-.57c.33-.45.65-.9.94-1.37l1.73-2.75-2.24,2-.09.08h0l-1.37.58c-.54.09-.84.5-1.27.74l-1.26.77-1.38.7c-.89.44-1.8.87-2.75,1.26l-2.74,1.15c-1.9.75-3.83,1.48-5.72,2.35a11.71,11.71,0,0,0-1.38.67l-.7.36a2.11,2.11,0,0,0-.69.41c-.3.3-.59.63-.88,1-2.27-.16-4.58-.4-6.78-.74h.09l.23-.1c.1,0,0-.11,0-.16a2.35,2.35,0,0,1,.19-.39,3.6,3.6,0,0,1,.37-.41,3.81,3.81,0,0,1,1.15-.75,4.37,4.37,0,0,1,.68-.27,5.17,5.17,0,0,1,.68-.16,3.89,3.89,0,0,1,1.18,0c.08,0,.14.1.22,0L525,189a2.16,2.16,0,0,1,.49-.22,4.61,4.61,0,0,1,.53-.15,3.86,3.86,0,0,0-.17-.55,2.28,2.28,0,0,0-.36-.57,3.8,3.8,0,0,0-.28-.33c-.11-.11-.27,0-.39-.09a6.86,6.86,0,0,0-1.81,0,5.09,5.09,0,0,0-.95.24,4.51,4.51,0,0,0-1,.35,5.53,5.53,0,0,0-2.37,1.9,5.56,5.56,0,0,0-.44.88c0,.17-.15.29-.11.44a1.06,1.06,0,0,0,.09.25l-1.61-.34c-2.31-.54-4.39-1.75-6.81-2.07-4.23-.53-7.53.9-11.3,2.49-2.38,1-4.66.22-7.2,0a3.21,3.21,0,0,1-1.72-.59l1.37-.25c.22,0,.36-.23.55-.31l.55-.33c.73-.43,1.38-.84,2.18-1.24a25.71,25.71,0,0,1,4.44-2q.56-.18,1.14-.33c.38-.09.77-.15,1.14-.22a11.52,11.52,0,0,1,1.17-.09h1.21l1.28,1h.64l.33-.33a1.15,1.15,0,0,0,.33-.1,11.41,11.41,0,0,0,1.29-.56,7.06,7.06,0,0,0,1.19-.76,18.75,18.75,0,0,1-2.56-.63.76.76,0,0,0-.3,0c-.1,0-.31-.66-.31-.66l-.61,1h-2.18a15.16,15.16,0,0,0-2.75.38c-.44.1-.88.24-1.37.36a28.58,28.58,0,0,0-4.85,2.19l-2.24,1.29-.57.33c-.16.12-.4.15-.53.33l-.88,1h0l-.25.17-1.27,1.07c-1.18-.11-2.38-.21-3.56-.25l.25-.32a21.09,21.09,0,0,1,1.62-1.92,33.51,33.51,0,0,1,3.56-3.49l3.14-2.64-4,.8h-.32c-.09,0-.17.11-.26.17l-.35.42a37.38,37.38,0,0,0-3.35,3.31c-.59.65-1.15,1.38-1.69,2l-.41.51a1.26,1.26,0,0,1-.22.24v.87h-.49c-3.29.16-6.88,1.75-10.25,1.72.28-.22.57-.43.88-.63a20.06,20.06,0,0,1,2.48-1.38c1.76-.89,3.61-1.69,5-2.32.17-.11.37-.08.5-.25l.35-.41c.22-.26.4-.51.55-.72s.46-.67.46-.67h-2.17c-.2,0-.31.16-.5.21-1.37.63-3.23,1.37-5.09,2.36a29.24,29.24,0,0,0-2.81,1.38,13.75,13.75,0,0,0-2.19,1.69,4,4,0,0,1-.32.28c-2.4-.63-3.8-1.6-6.77-1.62-9.31,0-18.81,2.75-28.13,2.46,6.21-3.05,13.54-7,20.15-8.36,19.48-4,43.85,1.38,60.19-13.5-7,3.18-10.63,2.63-18.37,1.38-.85-.14-1.7-.24-2.55-.32l1.84-.62,3.34-1a35.55,35.55,0,0,0,3.49-1.29,18.14,18.14,0,0,0,1.72-.83,10.74,10.74,0,0,0,1.64-1c.51-.37,1-.73,1.45-1.11s.93-.79,1.38-1.17a59.39,59.39,0,0,1,4.56-4.13c.32-.3.73-.42,1-.73l.84-.78c.55-.47,1-.88,1.47-1.21.84-.65,1.37-1,1.37-1h-.45a6.57,6.57,0,0,0-1.25.24c-.54.13-1.18.29-1.93.53l-1.17.46a2.15,2.15,0,0,0-.56.34l-.56.43a54.38,54.38,0,0,0-4.72,4.12l-1.26,1.1c-.44.35-.87.69-1.38,1a15.38,15.38,0,0,1-1.37.9c-.53.24-1,.53-1.56.75a34.53,34.53,0,0,1-3.28,1.21l-3.34,1c-1.1.34-2.16.7-3.17,1.11a14.55,14.55,0,0,0-1.45.65,10.25,10.25,0,0,0-1.14.6,67.72,67.72,0,0,0-7.54.33c-3.93.37-9,2.35-12.62,1.38a16.78,16.78,0,0,1,3.7-4.22l.29-.1a29.66,29.66,0,0,1,3.06-.88c2.15-.54,4.38-1,6-1.62.2-.11.44-.08.59-.24l.45-.45a4.8,4.8,0,0,0,.66-.77,7.64,7.64,0,0,0,.47-.73H482a2.53,2.53,0,0,1-.55,0c-.2,0-.34.15-.53.18a30.89,30.89,0,0,1-3.25.94c1.12-.66,2.24-1.38,3.36-2,8.25-5.31,16.94-14.33,22.57-22.42-10.46,7.46-20.85,14.14-30.93,21.84a39.9,39.9,0,0,1-10.22,5.41h0c.79-1.3,1.63-2.59,2.41-3.91.38-.67.8-1.37,1.15-2a20.31,20.31,0,0,0,1-2h.53c.18,0,.29-.15.46-.2,1.38-.56,3.14-1.22,5-1.84s3.68-1.21,5.07-1.65c.17-.09.36,0,.5-.18l.38-.35.61-.62c.33-.36.5-.59.5-.59l-.75-.17c-.24,0-.52-.11-.85-.15l-.53-.08c-.18,0-.31.12-.49.15-1.38.44-3.26,1-5.12,1.65-1.55.52-3.08,1.08-4.34,1.59l.37-1c.11-.39.19-.78.29-1.18l.26-1.19.12-1.21c0-.39.09-.81.1-1.21v-.12l1.16-.37a9.73,9.73,0,0,1,1.08-.18,2.73,2.73,0,0,0,.56-.15l.61-.15a22.65,22.65,0,0,1,2.85-.36,24.85,24.85,0,0,0,3.43-.49,12.72,12.72,0,0,0,3.62-1.38l.22-.12h.09l.39-.26a8.82,8.82,0,0,0,.84-.77,9.51,9.51,0,0,0,1.24-1.72c.63-1.18,1-2.38,1.55-3.4a7.07,7.07,0,0,1,1.81-2.49,13.8,13.8,0,0,1,2.62-1.66,27.82,27.82,0,0,1,2.65-1.09,9,9,0,0,0,1.24-.42l1.07-.61c.67-.37,1.25-.73,1.72-1a9.71,9.71,0,0,0,1.07-.74l.37-.27-1.72.27-2,.25-1.21.15a8.37,8.37,0,0,0-1.28.43,23.21,23.21,0,0,0-2.88,1.18,15.55,15.55,0,0,0-3,1.91,9,9,0,0,0-2.37,3.2c-.57,1.17-1,2.33-1.52,3.3a6.24,6.24,0,0,1-.92,1.3,3.21,3.21,0,0,1-.51.46l-.38.26h0l-.18.1a10.41,10.41,0,0,1-3,1.17c-2.09.47-4.29.43-6.25.84a5.86,5.86,0,0,0-1.38.37,8.29,8.29,0,0,0-1.14.7l-.54.41v-.73l-.26-1.19-.24-1.18c-.13-.39-.28-.76-.42-1.15a13,13,0,0,0-.95-2.21l-.68-1.25c2-1.54,4.12-3,6.14-4.61l.85-.68a3.61,3.61,0,0,0,.8-.76c.47-.58.94-1.17,1.38-1.77a17.54,17.54,0,0,0,1.11-1.93,11.57,11.57,0,0,0,.76-2.06c-.22.29-.43.58-.65.85a8.88,8.88,0,0,1-.71.79,15.6,15.6,0,0,1-1.56,1.37,18.16,18.16,0,0,1-1.66,1.22,4.28,4.28,0,0,0-.81.65c-.26.23-.54.45-.81.66-2.18,1.75-4.55,3.31-6.88,5.14l-.67.55.45.83,1,1.91a12,12,0,0,1,.84,2c.12.33.27.66.37,1l.22,1,.23,1.05v2.11a3.78,3.78,0,0,1-.1,1.06l-.09,1.07-.25,1.05c-.08.34-.14.7-.25,1l-.35,1a18.86,18.86,0,0,1-.84,2,18.28,18.28,0,0,1-1,2c-.35.6-.75,1.37-1.12,2l-.73,1.17a6.37,6.37,0,0,0,.09-1.23,5.75,5.75,0,0,0-.14-1.78c-.11-.58-.26-1.16-.43-1.74l-1-3.12a15.46,15.46,0,0,1-.56-2.62.66.66,0,0,1,0-.28.42.42,0,0,0,0-.27l-.25-.48a5.49,5.49,0,0,1-.38-.86l-.35-.78a5,5,0,0,0-.44.74,4.49,4.49,0,0,0-.42.92,2.33,2.33,0,0,1-.21.61,2.29,2.29,0,0,0,0,.64,17,17,0,0,0,.65,3l1,3.13c.15.51.29,1,.38,1.5a6.09,6.09,0,0,0,.1.73,2.73,2.73,0,0,1,0,.7,5.84,5.84,0,0,1-.1,1.38c-.08.38-.18.77-.29,1.15,0,.18-.2.29-.19.48s0,.36,0,.54v.29a4.48,4.48,0,0,0-.89.15,1.32,1.32,0,0,0-.3.09.83.83,0,0,1-.14.22l-.3.43c-.4.56-.77,1.13-1.12,1.72-.18.29-.34.59-.51.88h-.12c-2.75,1-6.46,4.12-9.24,3.37a21.39,21.39,0,0,0,.48-3.74c.48-.83,1-1.64,1.47-2.46,1.12-1.82,2.27-3.62,3.36-5.5l.52-.9-1-.57-.23-.14-.15-.11h0a.17.17,0,0,1-.19,0,3.07,3.07,0,0,1-.43-.69,1.71,1.71,0,0,0-.67-.69,2.15,2.15,0,0,1-.21.79,2.11,2.11,0,0,0-.34.85,1.7,1.7,0,0,0,0,.71.68.68,0,0,0,.17.35l.21.2c-.8,1.38-1.63,2.69-2.47,4.05v-2.64c-6.45,8.25-14.6,14.74-13.75,25.56-1.26.29-2.56.55-3.92.78.23-.58.41-1.18.6-1.79.1-.31.18-.62.25-.93a3.94,3.94,0,0,0,0-1v-1.92c0-.65-.08-1.28-.11-1.93a18.09,18.09,0,0,0-.27-1.92c-.09-.65-.29-1.26-.43-1.9a17.8,17.8,0,0,0-.62-1.87,18,18,0,0,0-.81-1.8,12.78,12.78,0,0,0-1-1.69,15,15,0,0,0-1.17-1.46c1.78,0,3.49,0,5-.13h1a3.64,3.64,0,0,0,.92-.09c.6-.12,1.17-.23,1.69-.38s1-.28,1.48-.44.81-.32,1.21-.51a6.4,6.4,0,0,0,.92-.52,3,3,0,0,0,.61-.5l.44-.44L439,170a2.28,2.28,0,0,1-.68.23,4.66,4.66,0,0,1-1,.19,7,7,0,0,1-1.2.11h-1.38a11.13,11.13,0,0,1-1.63-.08,13.85,13.85,0,0,0-1.82.07c-2.1.08-4.52,0-7.15.25a7,7,0,0,0-.94-.68,16,16,0,0,0-1.71-1c-.6-.28-1.18-.58-1.79-.8l-.4-.14a.52.52,0,0,1,.1-.11,2.09,2.09,0,0,0,.51-.6c.15-.22.32-.43.48-.65a12,12,0,0,1,1.13-1.24,13.28,13.28,0,0,1,1.37-1.11,10.08,10.08,0,0,0-3.45,1.09c-.27.15-.55.3-.81.46a3.51,3.51,0,0,0-.4.27,1.67,1.67,0,0,0-.31.34,11.89,11.89,0,0,0-1.17,1.48l-.75,1.13,1.38.45,1.68.58c.55.19,1.06.48,1.59.72l.25.12a4.41,4.41,0,0,0-1,.19,11.88,11.88,0,0,0-1.3.35l-.6.2-.69.28a17.48,17.48,0,0,0-4.44,3.15l-1.9,1.73c-.31.27-.63.55-.93.78l-.5.39-.49.36c-1.38,1-2.75,2-4,2.88a30.47,30.47,0,0,1-3,1.72v-.1c.09-.2,0-.42,0-.66a43,43,0,0,1,.84-6.59,3.06,3.06,0,0,1,.2-.79,41.19,41.19,0,0,1,4.13-4.12l.77-.51a3.41,3.41,0,0,0,.57-.43c.16-.09.17-.22.16-.2h-.13c.83-.65,1.69-1.26,2.57-1.82,7.07-4.43,16.6-3.2,23.61-8.59a37.67,37.67,0,0,0,7.24-7.52h0a7.55,7.55,0,0,0,.93.26h.83v1.2a84.7,84.7,0,0,1-1.29,10.76,9.38,9.38,0,0,0-.18,1.06v1a14.73,14.73,0,0,0,.15,1.63c.05.46.12.92.21,1.37l.59-1.37c.19-.42.41-.91.66-1.49l.39-.91a9.55,9.55,0,0,0,.18-1.07,90.31,90.31,0,0,0,1.37-11v-1.74a8.18,8.18,0,0,1,.7-.43c3.18-2.08,6-5.83,8.72-9.56s5.19-7.57,7.28-10.21a6.27,6.27,0,0,0,.75-.95c.19-.33.35-.67.53-1,.35-.61.66-1.12.94-1.54a7.9,7.9,0,0,1,.7-.94l.27-.31-.37.15a7.87,7.87,0,0,0-1.1.52,15.06,15.06,0,0,0-1.59,1.05c-.3.22-.59.46-.92.71a1.51,1.51,0,0,0-.42.45c-.12.18-.26.35-.39.51-1.6,2-3.39,4.62-5.26,7.33a1.31,1.31,0,0,1-.09-.34c-.21-.86-.48-1.76-.72-2.75a13.38,13.38,0,0,1-.49-2.94,4.06,4.06,0,0,1,.14-1.3,2.76,2.76,0,0,1,.55-1c.49-.6,1.37-1.1,2-1.85.1-.09.17-.2.27-.28a.56.56,0,0,0,.19-.3,3.34,3.34,0,0,0,.14-.7,3.83,3.83,0,0,0,0-1.07,3.65,3.65,0,0,0-.2-.64.3.3,0,0,0-.08-.2,5.29,5.29,0,0,1-.51.66,3.47,3.47,0,0,1-.6.55,2.24,2.24,0,0,1-.4.22c-.14,0-.15.23-.29.33-.41.48-1.27,1-2.12,1.92a4.73,4.73,0,0,0-1,1.76,6.06,6.06,0,0,0-.22,1.94,17,17,0,0,0,.55,3.4c.26,1,.49,1.91.71,2.75.07.17,0,.38.11.52l.31.42a3.64,3.64,0,0,1,.38.66v0l-.78,1.12c-1.38,1.85-2.75,3.65-4.13,5.23a21.8,21.8,0,0,1-3.76,3.55,18.31,18.31,0,0,0-.28-1.95,3.2,3.2,0,0,0-.2-.81,31,31,0,0,0,3.62-14.16c-3.67,2.35-3.51,7.21-5,11.16a6.6,6.6,0,0,0-1.08-1.22,3.33,3.33,0,0,0-1.1-.72,7.65,7.65,0,0,0-1.16-.22h-1a5.49,5.49,0,0,0-.79.15,5.35,5.35,0,0,0-1,.35l-.34.13h.35a8.72,8.72,0,0,1,1,.24,4.88,4.88,0,0,1,.64.23,6.53,6.53,0,0,1,.7.35,3.45,3.45,0,0,1,.64.5.69.69,0,0,0,.34.22,2.24,2.24,0,0,1,.34.27,4.56,4.56,0,0,1,1.17,1.58,1.17,1.17,0,0,0,.14.35,10.55,10.55,0,0,1-.71.91,12.31,12.31,0,0,1-2.11,1.91,15.89,15.89,0,0,0-.42-1.91,13.57,13.57,0,0,1-.36,2.37,20.43,20.43,0,0,1-3.84,1.22l-1.22-.26.32-.33a7.77,7.77,0,0,0,.94-1.2,4.6,4.6,0,0,0,.55-1.69l.09-.47v-.45a6.61,6.61,0,0,0,0-.89,14,14,0,0,0-.13-1.94,27.21,27.21,0,0,0-.92-3.87,27.36,27.36,0,0,1-.93-3.8,8.65,8.65,0,0,1-.09-1.9v-1.05l.17-.92a24.6,24.6,0,0,1,1.22-3.82c.51-1.25,1.09-2.47,1.65-3.67s1.12-2.36,1.62-3.48,1-2.21,1.38-3.26c.1-.26.18-.52.26-.77a2.44,2.44,0,0,0,.19-.75,9,9,0,0,1,.09-1.47,8.1,8.1,0,0,0-.29-2.4,4.57,4.57,0,0,0-.57-1.37l-.23-.45v.49a6.37,6.37,0,0,1,0,1.38,8.73,8.73,0,0,1-.5,2.06c-.16.38-.3.78-.49,1.19a11.12,11.12,0,0,0-.45,1.38c-.35,1-.76,2-1.25,3.09s-1.06,2.24-1.63,3.44-1.17,2.46-1.69,3.79a23.26,23.26,0,0,0-1.37,4.21l-.21,1.17v1.07a7.65,7.65,0,0,0,0,1.79l-.19-.1c-.18-.12-.37,0-.55,0h.14a11.13,11.13,0,0,0-2.08.13l-4,.41a24.74,24.74,0,0,1-3.85.12,6.54,6.54,0,0,1-.89-.09.8.8,0,0,1-.43-.09.3.3,0,0,0-.4,0,2.72,2.72,0,0,1-.9,0,2,2,0,0,1-1-.33,2.29,2.29,0,0,0,.35,1.17,3.5,3.5,0,0,0,.89.95.68.68,0,0,0,.26.18h.29a3.82,3.82,0,0,0,.57.11,6.73,6.73,0,0,0,1.1.12,25.79,25.79,0,0,0,4.12-.12l4-.41c.66,0,1.37-.11,1.94-.13H433c.15,0,.3.09.45,0a4.44,4.44,0,0,1,.61-.22c.22,1,.49,2,.77,2.89a24.13,24.13,0,0,1,.85,3.55,10.42,10.42,0,0,1,.13,1.58v.78q0,.34-.09.69a2.2,2.2,0,0,1-.16.61,4,4,0,0,0-.22.57,6.48,6.48,0,0,1-.41,1.17l-.39.83c-.91-.28-1.81-.61-2.75-1l-2.87-1.09c-1-.37-1.95-.71-3-1a25.48,25.48,0,0,0-3.12-.8,15.72,15.72,0,0,0-1.66-.22h-2.35l-.38.1a3,3,0,0,0-.59.31l-.44.37a6.67,6.67,0,0,0-1,1.46,11.44,11.44,0,0,1-1.5,2.31l-.18.14h-.54c-.46,0-.91,0-1.37,0a26.09,26.09,0,0,1-2.94-.25l-1.52-.22-.16-.56a1.92,1.92,0,0,1,.16-.58c.07-.21.24-.62.37-.94s.14-.7.27-1.07a26.22,26.22,0,0,1,2.09-5c.92-1.8,2-3.68,3.14-5.5s2-3.28,2.86-4.89h0c.28-.1.58-.22.94-.33l.55-.15c.19,0,.29-.22.47-.3a4.42,4.42,0,0,1,1.11-.49c.43-.13,1-.23,1.54-.37a10.63,10.63,0,0,0,1.83-.53,12.85,12.85,0,0,0,1.78-.79,7.75,7.75,0,0,0,1.76-1.18,4.69,4.69,0,0,0,1.21-1.83,11.3,11.3,0,0,0,.5-1.72c.12-.5.25-.94.37-1.37,0-.1.07-.2.11-.3a.48.48,0,0,0,0-.29v-2.52s-.27.19-.73.58c-.27.23-.53.48-.78.74s-.28.33-.44.51-.14.43-.25.66c-.3.89-.49,2.08-.81,2.93a2.84,2.84,0,0,1-.7,1.07,6,6,0,0,1-1.27.84,14.49,14.49,0,0,1-1.56.69,12.27,12.27,0,0,1-1.57.46c-.54.13-1.1.22-1.68.4a7.57,7.57,0,0,0-1,.4,21.81,21.81,0,0,0,1.28-3.22,4.84,4.84,0,0,0,.29-1.25,9.83,9.83,0,0,0-.08-1.21,6.15,6.15,0,0,0-.24-1c-.11-.31-.25-.59-.36-.84a3.69,3.69,0,0,0-.78-.94l-.3-.27.12.39a3.81,3.81,0,0,1,.19,1.06v.7a2.44,2.44,0,0,1-.19.84,5.38,5.38,0,0,1-.36.91,1.74,1.74,0,0,0-.12.5,2.38,2.38,0,0,1-.14.54c-.88,3-3.17,6.74-5.43,10.52a50.29,50.29,0,0,0-5.5,11.09,7.33,7.33,0,0,0-.29,1.23,11.61,11.61,0,0,0,0,1.18,4.53,4.53,0,0,0,.17,1v.09h-.17a11.82,11.82,0,0,0-3.36,0l-.88.21-.84.33a4,4,0,0,0-1.47,1,9.93,9.93,0,0,0-1.83,2.75,17.43,17.43,0,0,0-1,3,27.65,27.65,0,0,1,1.87-2.44,9.33,9.33,0,0,1,2.16-1.85c.18-.13.41-.18.59-.29a4.37,4.37,0,0,1,.55-.32l.58-.25.63-.13a9.06,9.06,0,0,1,2.75,0l.84.11c-.12,6.07-1.11,11.38-5.86,16.21a65.73,65.73,0,0,1-6.87,5.7v-1.61c0-1.15.12-2.39.19-3.71a30,30,0,0,1,.58-4.12c.14-.72.26-1.38.4-2.19l.49-2.21c.33-1.5.73-3,1.13-4.51,1.66-6,3.7-12,5.09-16.5a15.07,15.07,0,0,0,.48-1.62c.08-.55.15-1.06.22-1.54.13-1,.23-1.8.3-2.51.12-1.37.18-2.2.18-2.2s-.36.73-.95,2c-.3.62-.66,1.38-1.07,2.27l-.65,1.37a13.13,13.13,0,0,0-.52,1.61c-.7,2.28-1.57,4.95-2.48,7.81l-.38-.47a13.1,13.1,0,0,1-.8-1.15,5,5,0,0,1-.42-.7,5,5,0,0,0-.64-.66c-.42-.46-.85-1-1.37-1.59a10,10,0,0,1-1.31-1.92c-.25-.39-.49-.8-.74-1.21a.54.54,0,0,1,0-.18l.22-.55.91-2.24a47.77,47.77,0,0,0,1.66-4.66c.13-.41.23-.82.32-1.24a12.63,12.63,0,0,0,.23-1.37v-1.38a6.71,6.71,0,0,0-.18-1.26c-.07-.4-.14-.77-.18-1.14a2.44,2.44,0,0,1,0-.54.69.69,0,0,0,0-.49,3.35,3.35,0,0,1-.24-1,2.71,2.71,0,0,1,.19-1.19,2.85,2.85,0,0,0-1.17.8,3.58,3.58,0,0,0-.74,1.37.89.89,0,0,0-.11.36v1a10.62,10.62,0,0,0,.19,1.24c.07.39.12.77.16,1.12a2.09,2.09,0,0,1,0,.5,2.26,2.26,0,0,1,0,.52,5.48,5.48,0,0,1-.19,1.06c-.08.34-.18.74-.29,1.11a43.77,43.77,0,0,1-1.59,4.46l-.54,1.37-.42-.85c-1.57-3.15-2.93-6.42-4.06-8.87a5.22,5.22,0,0,0-.41-.86l-.59-.69c-.36-.44-.69-.8-1-1.1l-.25-.25a48.51,48.51,0,0,0,3.61-5.88v-.1l.26-.16c.23-.13.33-.39.53-.55a14.19,14.19,0,0,1,1.38-1.19c.49-.38,1-.79,1.62-1.18,1.15-.8,2.5-1.54,3.85-2.31s2.75-1.55,4-2.35c.62-.44,1.25-.81,1.79-1.25a14.13,14.13,0,0,0,1.53-1.25l.34-.3a.69.69,0,0,0,.29-.32l.55-.26a9,9,0,0,0,.51-1.24c.22-.7.3-1.1.3-1.1l-.94.63a9,9,0,0,1-1.07.65l-.64.36c-.24.11-.36.35-.59.52a12.66,12.66,0,0,1-1.38,1.14c-.49.4-1.09.76-1.66,1.16-1.2.75-2.52,1.52-3.88,2.28s-2.75,1.54-4,2.39c-.44.29-.82.61-1.23.91.34-1.62.48-3.27.72-5.14.1-.71.21-1.38.35-2.11a23.23,23.23,0,0,1,1.81-1.62c.13-.08.22-.18.35-.25a.75.75,0,0,0,.31-.25c.16-.2.33-.4.51-.59a11.38,11.38,0,0,1,.94-.9c.56-.47.93-.73.93-.73h-1.24a9.19,9.19,0,0,0-1.37.26,6.28,6.28,0,0,0-.87.27,1.75,1.75,0,0,0-.6.4c.45-1.89,1-3.81,1.48-5.72v1.14l.72-.6A8.12,8.12,0,0,1,394,97l.47-.36c.15-.11.19-.34.35-.51a24.07,24.07,0,0,1,1.81-2.35c.77-.85,1.58-1.77,2.39-2.75.42-.48.83-1,1.2-1.45s.75-1,1.09-1.54a11,11,0,0,0,.83-1.6,8,8,0,0,0,.55-1.55c0-.12.06-.24.1-.36a.56.56,0,0,0,0-.36,4.26,4.26,0,0,0-.15-.69q-.06-.28-.15-.57l-.14-.44a7.9,7.9,0,0,0-.43-.84l-.37.84a5.22,5.22,0,0,1-.45.88l-.29.49c-.11.17,0,.37-.15.55a6.87,6.87,0,0,1-.44,1.25,11.16,11.16,0,0,1-.7,1.38c-.29.44-.61.91-1,1.37s-.75.91-1.13,1.38l-2.39,2.75a24.23,24.23,0,0,0-2,2.64h0a47,47,0,0,0,2.1-14.56c-4.56,6.09-8.06,18.45-11.91,29.17l-.11.08-.56.29-.26.14h-.19a6.59,6.59,0,0,1-2,.52c-1.37.18-2.89.1-4.22.18a4.66,4.66,0,0,0-1,.1c-.3.12-.59.26-.83.38a5.57,5.57,0,0,0-1.26.9,3,3,0,0,0-.56.74l-.15.29.29-.13.37-.12.51-.11a8.28,8.28,0,0,1,1.22,0l.76.1a2.21,2.21,0,0,1,.81,0c1.18-.09,2.67,0,4.36-.2a10.07,10.07,0,0,0,1.89-.39c-.11.3-.23.61-.34.93s-.63.44-.92.66-.7.58-1,.89a6.88,6.88,0,0,0-.84.95c-.1.19-.32.26-.34.48a2.91,2.91,0,0,0,0,.59v.88a6.48,6.48,0,0,0,.18.73s.23-.16.59-.46l.3-.25.33-.18c-.5,1.11-1,2.19-1.51,3.18a140.76,140.76,0,0,1-13.56,20.62c-1.28-5.2-4.12-9.91-6.56-14.67l.15-.21c.25-.33.5-.7.8-1.06s.43-.83.72-1.25a26.65,26.65,0,0,1,1.84-2.65,34.87,34.87,0,0,1,2.39-2.75c1.29-1.38,2.75-2.89,4.13-4.46l1.88-.23H371l.34-.27a6.52,6.52,0,0,0,.55-.48,6,6,0,0,0,.44-.5l-.59-.3a7,7,0,0,0-.62-.32l-.38-.18a.11.11,0,0,0-.08,0c.24-.31.51-.63.75-1s.83-1.17,1.21-1.76c.76-1.18,1.38-2.38,2-3.54,1.21-2.34,2.23-4.57,3.09-6.47a11.09,11.09,0,0,0,.59-1.37l.35-1.38c.2-.82.38-1.55.53-2.14l.46-1.88s-.46.55-1.17,1.55c-.37.49-.81,1.11-1.28,1.83l-.77,1.13a11.32,11.32,0,0,0-.63,1.37c-.86,1.9-1.86,4.13-3,6.35-.59,1.13-1.23,2.28-1.94,3.4-.37.56-.7,1.08-1.13,1.65s-.84,1.06-1.25,1.59l-.88,1.06a15.08,15.08,0,0,0-1.5.33h-.2a.88.88,0,0,0,0-.23,18.71,18.71,0,0,0,0-4.61,15.44,15.44,0,0,0-1.38-4.45c-.19-.35-.36-.7-.58-1a11.4,11.4,0,0,0-.7-1,9.27,9.27,0,0,0-1.28-1.38h0q0-.39,0-.78a7.26,7.26,0,0,0-.17-1.68c-.35.45-.72.83-1.08,1.24s-.35.42-.53.66a1.36,1.36,0,0,0-.24.38.74.74,0,0,1-.08.44l-.15.61.56.42A9,9,0,0,1,361.6,103c.18.26.38.52.55.8a7.72,7.72,0,0,1,.47.85,12.79,12.79,0,0,1,1.12,3.83,16.14,16.14,0,0,1,0,4,6.37,6.37,0,0,1-.18,1,2.42,2.42,0,0,1-.13.46,1.29,1.29,0,0,0,0,.48v.15l-.18.22-.28.36-.67.67c0,.11-.23.11-.25.26a.7.7,0,0,1-.09.4,2.14,2.14,0,0,0-.17.66l-.18.6a3.64,3.64,0,0,0,.66,0,2.81,2.81,0,0,0,.58,0c-.88,1-1.72,1.93-2.48,2.89a30.88,30.88,0,0,0-2,2.86,10.28,10.28,0,0,0-.76,1.38,2.47,2.47,0,0,0-.1.29c-2.5-5-4.41-10.19-3.68-16.12.53-4.32,3.06-9,4.7-13.38.82-2.21,1.68-4.59,2.47-7a9.79,9.79,0,0,1,1-1,7.29,7.29,0,0,1,1-.78c.34-.28.62-.65,1-.95,1.47-1.28,3.54-2.49,5.72-4l.37-.27c.2.11.41.21.62.3a4.79,4.79,0,0,0,1.07,0c3,0,6.3-1.51,9.42-3.07s6.11-3.28,8.39-4.37c.27-.18.59-.19.81-.41l.66-.54c.41-.31.77-.62,1.09-.85a12,12,0,0,1,1-.71h-.37a5,5,0,0,0-1,0,5,5,0,0,0-1.38.13l-.88.14a4,4,0,0,0-.86.4c-2.4,1.13-5.39,2.86-8.43,4.39a39.63,39.63,0,0,1-4.53,2,12.94,12.94,0,0,1-3.53.81c.23-.22.47-.47.7-.71l.43-.43.2-.23.16-.21.63-.8c.42-.53.82-1.18,1.24-1.77a36.21,36.21,0,0,0,2-3.71c.27-.55.51-1.12.76-1.67L380.9,73l-1.79-4.51.1-.24c.51-1.19,1-2.31,1.51-3.35a29.83,29.83,0,0,1,1.54-2.76c.22-.45.59-.76.77-1.2s.38-.78.59-1.15a19,19,0,0,1,1.1-1.84l1.1-1.58-.44.26c-.27.18-.71.41-1.22.77a14.88,14.88,0,0,0-1.79,1.37c-.31.3-.7.61-1,1a2.62,2.62,0,0,0-.45.6c-.13.22-.29.43-.41.66a29.62,29.62,0,0,0-1.65,3c-.31.6-.6,1.25-.87,1.88-.17-.3-.32-.62-.47-.92a25.41,25.41,0,0,1-1.28-2.75,7.18,7.18,0,0,1-.4-1.37,3.4,3.4,0,0,1-.09-.64v-.62a1.32,1.32,0,0,1,.08-.59l.12-.27c0-.1-.06-.23-.06-.34a5.21,5.21,0,0,1,0-.79v-1c-.29.11-.6.24-.87.37a6.64,6.64,0,0,0-.78.59,1.7,1.7,0,0,0-.33.38,1.51,1.51,0,0,1-.13.46,5.92,5.92,0,0,0-.14.94v.92a5.32,5.32,0,0,0,.14.89,11.51,11.51,0,0,0,.5,1.64,30.7,30.7,0,0,0,1.37,2.9l.4.81h-.16a6.52,6.52,0,0,0,.61,1.38,6,6,0,0,1,.28.57c-.34.8-.69,1.6-1.07,2.38-.58,1.2-1.22,2.36-1.91,3.49-.39.54-.71,1.06-1.13,1.61l-.63.81-.17.21-.14.14-.31.35a16.78,16.78,0,0,1-2.33,2l-.44-.15-.35-.18-.29-.14.14.29.16.36c0,.08.12.18.18.27a59.15,59.15,0,0,0-5.8,4.13l-.33.3c2.11-7.36,3.53-15.12,2.75-22-1.69,4.51-4.84,8.25-6.42,12.84v.25a6.49,6.49,0,0,0-.29-1,8.5,8.5,0,0,0-.54-1.19,12.4,12.4,0,0,0-.66-1.13c-.25-.35-.48-.72-.75-1a22.07,22.07,0,0,0-3.62-3.48c-.66-.5-1.38-1-2-1.38l-1-.59.24-.38c.14-.28.27-.56.38-.84a1.73,1.73,0,0,0,.19-.89,4.27,4.27,0,0,0-.47-1.76,2.37,2.37,0,0,0-.56-.73,1.06,1.06,0,0,0-.42-.22.75.75,0,0,0-.42,0,.53.53,0,0,1,.27.22.63.63,0,0,1,.1.3,1.78,1.78,0,0,1,0,.65,2.15,2.15,0,0,1-.18.61,3.81,3.81,0,0,1-.29.57c0,.09-.12.16-.12.26a1.41,1.41,0,0,1,0,.29,3.91,3.91,0,0,1-.24.51,2.06,2.06,0,0,1-.31.46,3.88,3.88,0,0,1-.39.42l-1,1.06,1.19.63c.67.37,1.37.75,2,1.17a17.93,17.93,0,0,1,1.87,1.37,19.27,19.27,0,0,1,3.26,3.12,9.21,9.21,0,0,1,.64.9,6.58,6.58,0,0,1,.55.92,6.92,6.92,0,0,1,.44,1c.14.33.18.67.29,1a4.91,4.91,0,0,1,.13,1,8.49,8.49,0,0,0,.16,1,8.36,8.36,0,0,1,.14,1.12v1.26l.14-.16c-1.38,5.5-2.16,11.24-4.35,16.25-5.5-7.77-3.79-20.62-8.34-29.48a27.1,27.1,0,0,1,1.54,13.43c-.73,7.19,2.48,14.1,2,21.2a52.6,52.6,0,0,1-5.77-3.12c-.13-.42-.24-.86-.36-1.37s-.5-1.13-.7-1.76c-1-2.44-2-5.36-3.52-8.42a32.16,32.16,0,0,0-2.75-4.53,21.9,21.9,0,0,0-1.76-2.19,20.68,20.68,0,0,0-2-1.85,39.25,39.25,0,0,0-4.48-3.1l-4.4-2.58c-.7-.43-1.38-.87-2-1.3a17.55,17.55,0,0,1-1.87-1.37,20.24,20.24,0,0,1-3-2.75,9.14,9.14,0,0,1-.59-.7,7.1,7.1,0,0,0-.53-.67,7.2,7.2,0,0,1-1-1.26c-.26-.42-.56-.81-.76-1.21l-.49-1.14a5.34,5.34,0,0,1-.3-1c-.07-.29-.14-.54-.18-.73l-.17-.63v1.37a3.91,3.91,0,0,0,0,1.08c0,.4.1.85.15,1.37a12,12,0,0,0,.43,1.56,8,8,0,0,0,2,3.3,22.94,22.94,0,0,0,3.08,2.74h-.54a11.71,11.71,0,0,0-1.67.2c-1.16.15-2.36.38-3.54.63-2.38.49-4.71,1.06-6.43,1.37a1,1,0,0,0-.62.13l-.52.33-.86.51-.79.44s.3.13.86.34c.28.08.62.18,1,.26l.63.14c.22,0,.43-.1.66-.1,1.82-.34,4.13-.9,6.48-1.37,1.15-.24,2.32-.47,3.39-.61.55-.08,1.06-.13,1.56-.18s.93,0,1.37,0c.21,0,.4.1.58,0l.55-.19.4-.12c.59.38,1.19.78,1.83,1.15l4.38,2.63c1.09.66,2.19,1.37,3.21,2.1l-.39-.13-.38-.13h-.94a.57.57,0,0,0-.45.14,4.08,4.08,0,0,0-.79.65,2.74,2.74,0,0,0-.34.41c-.08.16-.16.34-.23.52a3.19,3.19,0,0,0-.18,1.06,4.89,4.89,0,0,0,.16.93,4.67,4.67,0,0,0,.31.81,5,5,0,0,0,.39.72c.14.22.28.44.43.65a13.62,13.62,0,0,0,1,1.18,17.39,17.39,0,0,0,1.59,1.5h0a.79.79,0,0,1-.38.34.21.21,0,0,1-.1.14l-.11.18a2.26,2.26,0,0,1-.34.35,8.7,8.7,0,0,1-.91.69,4.52,4.52,0,0,0,1.13.48,3,3,0,0,0,.67.1,1.4,1.4,0,0,0,.73-.1,7,7,0,0,0,.6-.48,3.37,3.37,0,0,0,.48-.58,4.32,4.32,0,0,0,.53-1.23l.18-.68-.57-.42a14,14,0,0,1-1.94-1.75q-.44-.5-.81-1a6,6,0,0,1-.34-.51,3.25,3.25,0,0,1-.28-.52,2.15,2.15,0,0,1-.19-.5,2,2,0,0,1-.08-.42v-.43l.11-.12a.68.68,0,0,1,.31-.22c.09,0,.1-.11.17-.18l.18-.25.22-.27.29-.26a5.68,5.68,0,0,0,.51-.47c.24.18.5.37.72.56A17.51,17.51,0,0,1,331.9,82a18.82,18.82,0,0,1,1.53,1.91,30.21,30.21,0,0,1,2.51,4.25c1.38,2.91,2.46,5.8,3.45,8.25.1.23.18.46.27.7-3.62-2.08-7.39-3.91-11.2-3.88,3.17,3.11,5.12,6.59,8.8,9.2,6.25,4.43,9.85,7.55,12.58,15.12,1.71,4.73,3.58,9.9,5.72,14.42-4.77-3.69-11.12-3.12-15.51-7.94-3.34-3.66-6.18-6.88-10.09-10.52,1,4,4.43,7.16,5.65,10.74-7.54-1.67-14.42-4.66-21.83-6.62,8.4,4.42,16.83,8.61,25.42,12.53v.08c.15.25.32.5.46.77s.45.43.64.69a18.53,18.53,0,0,1,2.59,3.56,18.76,18.76,0,0,1,1.76,4.72c.11.39.19.86.29,1.37a4,4,0,0,1,0,1,7,7,0,0,1-.88,2.05,14.39,14.39,0,0,0-1.23,2.33,5.26,5.26,0,0,0-.25,2.75,2.46,2.46,0,0,0,.16.59,1.33,1.33,0,0,0,.22.55l.7.79a8.25,8.25,0,0,0,1.28,1c.72.4,1.16.6,1.16.6s-.2-.44-.59-1.17c-.18-.38-.31-.82-.49-1.29a3.34,3.34,0,0,0-.17-.76,3.58,3.58,0,0,1-.2-.71,2.91,2.91,0,0,1,.15-1.6,14.25,14.25,0,0,1,1.07-2,8.29,8.29,0,0,0,1.13-2.75,5.51,5.51,0,0,0,0-1.72c-.08-.44-.17-.87-.29-1.38a21.48,21.48,0,0,0-1.95-5.26,18.59,18.59,0,0,0-1.38-2.21l.17.08c10.65,4.69,17.65,9.37,18.32,20l-.7.27-2.13.83a15.66,15.66,0,0,0-2.17,1,25.05,25.05,0,0,0-3.7,2.59,6.2,6.2,0,0,1-1.54.88A4.38,4.38,0,0,1,350,158a7.11,7.11,0,0,1-1.37-.22c-.87-.7-1.73-1.44-2.66-2.13a17.84,17.84,0,0,0-2.51-1.61c-.43-.23-.92-.41-1.38-.62l-.62-.2c-1.22-1.38-2.26-2.63-3.21-3.62a15.37,15.37,0,0,0-2.53-2.24c-.66-.44-1-.63-1-.63s.33.26.88.79a19.49,19.49,0,0,1,2.06,2.57c.53.75,1.06,1.63,1.68,2.6a7.84,7.84,0,0,0-1.37,0,11.8,11.8,0,0,0-2.58.44c-.64.22-1.27.37-1.85.62a50.68,50.68,0,0,1-.68-5.5,1.22,1.22,0,0,1,0-.27.39.39,0,0,0,0-.26c-.06-.17-.13-.33-.19-.5a3.66,3.66,0,0,1-.16-.8,1.28,1.28,0,0,1,0-.55l.09-.2h-.23a1,1,0,0,0-.28.11,1,1,0,0,0-.35.23,3.37,3.37,0,0,0-.72.92c-.09.19-.2.41-.29.62a2,2,0,0,0,0,.69c.17,2.14.43,4.26.8,6.38v.15h-.12c-1.09.67-2,1.29-2.75,1.79h-.09a24.93,24.93,0,0,0-.77-4.93c-2.06-5.77-1.82-9.62-5.38-13.25.31-.52.64-1,1-1.5a10.56,10.56,0,0,1,.68-.82l.35-.33.26-.18v.07a1.15,1.15,0,0,0,.58-.81,1.11,1.11,0,0,0-.3-.8,2.36,2.36,0,0,0-.62-.47H324l-.28.18-.63.44-.53.5a8.66,8.66,0,0,0-.87,1.05,12.32,12.32,0,0,0-.87,1.38,26.06,26.06,0,0,0-2.44-1.58,22.86,22.86,0,0,0-4.39-1.68,19.28,19.28,0,0,0,.28-2.27,1.74,1.74,0,0,0,.48-.53,3.92,3.92,0,0,1-.72-.69,2,2,0,0,0-.44-.33H313l-.79.19v.8a11.78,11.78,0,0,1-.23,2.14,21.21,21.21,0,0,1-5.82-2.32,3,3,0,0,1,.11-.43,43.5,43.5,0,0,0,1.38-5.76,45.65,45.65,0,0,1,1.28-5.5c0-.18.19-.31.16-.51a4.51,4.51,0,0,1,0-.52v-1.7c-.23.15-.47.3-.69.46a8.83,8.83,0,0,0-.71.65,2.78,2.78,0,0,0-.41.43c-.17.13-.13.37-.22.55a47.47,47.47,0,0,0-1.38,5.77c-.27,1.47-.58,2.9-.9,4.13a1.94,1.94,0,0,0-.35-1.38c-.73-.77-1.48-1.53-2.27-2.28-.57-1.38-1.17-2.75-1.78-4.28-.83-2-1.61-4.12-2.36-6.34a49,49,0,0,1-1.74-6.87,31,31,0,0,1-.3-3.6,9,9,0,0,1,0-1.8v-.91a2.76,2.76,0,0,1,.15-.8,6.44,6.44,0,0,1,.67-1.37c.29-.51.65-1,1-1.53a13.44,13.44,0,0,0,2-3.41,6.3,6.3,0,0,0,.35-2.2c0-.62-.07-1.25-.15-1.87a25,25,0,0,0-.83-3.72c-.19-.61-.38-1.2-.58-1.78a1.5,1.5,0,0,1,0-.3c0-.91-.11-1.86-.19-2.75a17.39,17.39,0,0,1,0-4.78c0-.17.11-.29,0-.46l-.12-.44-.21-.77c-.09-.45-.16-.73-.16-.73a5.37,5.37,0,0,0-.58.49,3.32,3.32,0,0,0-.61.63l-.34.41a.29.29,0,0,0-.08.26v.28a12.48,12.48,0,0,0-.18,2.44c-.78-1.6-1.57-3.12-2.34-4.51-.49-.82-.84-1.67-1.37-2.39l-1.46-2c-.91-1.26-1.73-2.34-2.41-3.23l-2.17-2.75,1.49,3.18,1.72,3.64,1,2.23c.35.78.89,1.52,1.37,2.36.91,1.65,1.86,3.47,2.75,5.41.63,1.37,1.24,2.74,1.77,4.23a11.81,11.81,0,0,1-.09,1.57c0,.16-.11.3,0,.44a1.23,1.23,0,0,1,.14.42,7.1,7.1,0,0,1,.22.79c.12.45.22.73.22.73s.22-.18.56-.5h0a17.92,17.92,0,0,1,.38,1.91,17.06,17.06,0,0,1,.14,1.8,4.25,4.25,0,0,1-.23,1.46,11.59,11.59,0,0,1-1.71,3c-.35.51-.74,1-1.08,1.63a7.44,7.44,0,0,0-.91,2,4.74,4.74,0,0,0-.21,1.06v1a13.09,13.09,0,0,0,0,2,31.76,31.76,0,0,0,.35,3.89,51.41,51.41,0,0,0,1.8,7.24c.74,2.2,1.51,4.29,2.32,6.25a33.82,33.82,0,0,1-2.75-3c-6.43-7.42-3-18.9-1.81-28.08-5.5,5-5.72,17.21-6.68,24.36-.69-3.15-2.91-3.1-4.86-5.16-3.56-3.78-6.28-8.69-9.21-13-1.37-2.12-2.75-4.33-4-6.56.18-2.24.43-4.86.55-7.54v-.71h0c1.37-1.37,3.49-3.13,5.5-5a32.51,32.51,0,0,0,2.87-3A17.79,17.79,0,0,0,279.11,72,13,13,0,0,0,280,70.5l.19-.37a.54.54,0,0,0,.14-.36v-.71a6,6,0,0,0,0-1.2,9,9,0,0,0-.15-1l-.61.81a6.41,6.41,0,0,1-.7.86l-.43.49c-.16.17-.17.4-.31.6a10.28,10.28,0,0,1-.76,1.38,12.48,12.48,0,0,1-1,1.37,27.46,27.46,0,0,1-2.75,2.75c-1.37,1.28-2.87,2.52-4.12,3.66V77.25c0-.83-.12-1.62-.19-2.38a12.83,12.83,0,0,0-.37-2.13,5.29,5.29,0,0,0-.24-.95c-.13-.27-.33-.52-.46-.77a14.22,14.22,0,0,0-.86-1.18c-.53-.61-.84-.92-.84-.92,0,.41.05.82.1,1.22a10.59,10.59,0,0,1,0,1.38q0,.41,0,.81a4.15,4.15,0,0,0,.18.85c.16.59.21,1.26.33,1.95a16.63,16.63,0,0,1,.19,2.23v3.53l-.23.52a7.7,7.7,0,0,0-.41,1.1c-.18.61-.27,1-.27,1l.82-.44c-.08,1.22-.16,2.42-.25,3.59-3.05-5.5-6.15-11-10.57-15.47A120.61,120.61,0,0,0,267,94.54v.2a1.42,1.42,0,0,0,.12.4c-1-.4-2.09-.82-3.17-1.2a26.7,26.7,0,0,0-3.7-1,18.63,18.63,0,0,0-2-.26H257c0-.12-.11-.25-.18-.37a9.09,9.09,0,0,0-.73-.91,17.79,17.79,0,0,0-1.5-1.37,8.08,8.08,0,0,1-.66-.65l-.39-.23-.4-.22a5.93,5.93,0,0,1-1.49-1.38,4.05,4.05,0,0,0,0,1.1,3.35,3.35,0,0,0,.11.55,5.89,5.89,0,0,0,.39,1.09,1.93,1.93,0,0,0,.26.49c.14.14.27.24.4.36l.38.36c.51.45,1,.86,1.38,1.28a7.79,7.79,0,0,1,.51.63,4.07,4.07,0,0,1,.33.66l.3.76h.81a9.2,9.2,0,0,1,1.66,0,7,7,0,0,1,1.69.2,30.15,30.15,0,0,1,3.41.95c1.13.4,2.27.84,3.41,1.29l.44.17a.87.87,0,0,0,.44.16H269c.45.66.89,1.38,1.37,2,1.23,1.62,2.27,3.35,3.37,5.07l-.21-.08-.6-.21h-.65c-1.81.1-4.22.42-6.53.64-1.17.09-2.31.15-3.38.15a25.42,25.42,0,0,1-2.89-.25h-.24a.55.55,0,0,0-.31,0l-.59.12-1,.18c-.55.1-.9.18-.9.18s.25.22.7.58a4.94,4.94,0,0,0,.84.6l.55.35c.2.15.43,0,.66.13a22.49,22.49,0,0,0,3.18.27,33.18,33.18,0,0,0,3.59-.17c2.42-.22,4.73-.52,6.49-.62h.5l.55-.26.88-.4c.49.7,1,1.38,1.5,2.09,3,3.85,8.16,5.9,11.08,9.75a35.6,35.6,0,0,1,3.33,6.61l-1.81.14a19.5,19.5,0,0,0-4.35.8l-.08-.11a2.73,2.73,0,0,0-.43-.47,2.25,2.25,0,0,1-.35.45,1.49,1.49,0,0,0-.36.51.17.17,0,0,0,0,.14c-.28-.67-.52-1.37-.79-2a20.51,20.51,0,0,0-2.15-4.51,12.63,12.63,0,0,0-1.58-1.91c-.28-.27-.57-.54-.87-.78s-.61-.48-.91-.72a31.51,31.51,0,0,0-3.49-2.2,13.59,13.59,0,0,0-1.6-.85l-1.53-.54-2.51-.83-2.18-.76a20.15,20.15,0,0,0,1.81,1.37c.58.44,1.38,1,2.13,1.56l1.31.93a3.14,3.14,0,0,0,.75.44l.79.41a34.65,34.65,0,0,1,3.27,2.07c.26.2.55.41.78.62a6.4,6.4,0,0,1,.77.7,9.49,9.49,0,0,1,1.38,1.59,19,19,0,0,1,1.94,4.13,30.75,30.75,0,0,0,2,4.66,14.57,14.57,0,0,0,3.42,4,20.77,20.77,0,0,0,4.4,2.49c3,1.21,5.82,1.91,8.08,2.75.29.09.57.19.83.3a5.2,5.2,0,0,0,.77.32,10.8,10.8,0,0,1,1.47.44,8,8,0,0,1,1.25.52l.41.19,1.12,1.38a7.38,7.38,0,0,0-2.12.86,10.38,10.38,0,0,0-3.18,2.83c-.35.6-.78,1.16-1.08,1.76a14,14,0,0,0-.85,1.85,25.39,25.39,0,0,0-1.2,3.8c-.3,1.3-.51,2.56-.69,3.91l-.19,1.91-.1,2V168c0,1.24,0,2.46-.12,3.67l-.21,1.81c-.12.57-.22,1.16-.35,1.74a14.23,14.23,0,0,1-.53,1.68,15.3,15.3,0,0,1-.74,1.59l-.44.75a3.3,3.3,0,0,1-.4.6,48.83,48.83,0,0,0-2.83-6.52c.5-4.7,1.66-10.79.37-15.2-1.48-5.12-7.06-11.18-10-15.37a11,11,0,0,1-.67-1.09,2,2,0,0,1,0-.6,13.84,13.84,0,0,1,.27-1.71,7,7,0,0,1,.2-1,9,9,0,0,1,.09-1,4.26,4.26,0,0,0-.08-1.07,3.37,3.37,0,0,0-.3-1c-.1-.13,0-.34-.24-.41l-.42-.19a2.17,2.17,0,0,0-.7-.17h-.6v.58a1.69,1.69,0,0,1,0,.55v.51a1.6,1.6,0,0,1,.16.48q0,.32,0,.63a2.69,2.69,0,0,1-.09.8,1.93,1.93,0,0,0,0,.34,18.72,18.72,0,0,0-1.37-2.53c-1.2-1.73-2.93-2.75-4.13-4.35l-.11-.18h0c0-.11.11-.24.18-.36s0-.25,0-.39c0-1.11.11-2.75.17-4.49a14.27,14.27,0,0,0-.5-4.91c-.11-.16,0-.37-.22-.49l-.41-.33a3.3,3.3,0,0,0-.73-.42,2.15,2.15,0,0,0-.51-.15H269a3.64,3.64,0,0,1,0,.66,4,4,0,0,1,0,.69v.4c0,.14.1.22.11.34a11.74,11.74,0,0,1,.4,4.13,10.15,10.15,0,0,1-.09,1.74c-.32-.92-.62-1.9-.95-3-1.24-4-.59-3.57-4.28-6.28-3.3-2.42-6.09-5.2-10.56-5.33,3.36,5.49,10.37,6,13.22,12.11.67,1.47,1.65,3.42,2.5,5.5v.46a2.23,2.23,0,0,0,.29.44h0a15.1,15.1,0,0,1,1.37,6c2.59,4.24,1.95,9.41,1.64,14.28-.2-.2-.42-.39-.65-.58l-.75-.66a6.92,6.92,0,0,0-1-.46,76.91,76.91,0,0,0-10.07-3.71c-3.7-1.14-7.35-2.27-10-3.32a8.41,8.41,0,0,0-.95-.36l-.94-.15c-.59-.1-1.11-.17-1.54-.25l-1.37-.22s.36.34,1,.92c.33.29.74.62,1.24,1l.78.59a6.49,6.49,0,0,0,1,.4c2.75,1.08,6.45,2.24,10.12,3.36a76.22,76.22,0,0,1,9.8,3.61c.33.12.6.35.92.44l.89.22c.51.12,1,.22,1.38.34a21.39,21.39,0,0,0,.33,6.08,11.56,11.56,0,0,0,1.11,2.84,4.72,4.72,0,0,1-3.82,1.78c-1.81-.29-5.8-6-7.73-7.34a49.2,49.2,0,0,0-12.3-5.5c3,2.62,5.4,6.06,8.17,9h0a4.61,4.61,0,0,0-1.61.26,5.62,5.62,0,0,1,1.18.87,4,4,0,0,1,.34.38h0a1.74,1.74,0,0,1-.24.36l-.65.69.6.67a11.71,11.71,0,0,0,1.6,1.55c.55.46,1.11.88,1.68,1.3,1.11.81,2.21,1.58,3.24,2.4a14,14,0,0,1,1.38,1.29,13,13,0,0,1,1.18,1.38c.15.25.27.51.42.77s0,.29.16.4l.33.34.53.77a17.33,17.33,0,0,0-2.36,3.62,34.23,34.23,0,0,0-.92,5.79v-.17a13.07,13.07,0,0,0-.58-2.21l-.17-.41h.43l-.52-.32a16.86,16.86,0,0,1-1-2.85v-.26c0-.07-.15-.14-.22-.19a1.06,1.06,0,0,1-.26-.43.9.9,0,0,1,0-.4v-.16a1.33,1.33,0,0,0-.68.15,1.7,1.7,0,0,0-.62.63,4.59,4.59,0,0,0-.24.5.23.23,0,0,0,0,.25v.26a7.13,7.13,0,0,0,.24,1l-.19-.11-1.15-.61c-.42-.2-.9-.26-1.38-.44L255.67,176a14.47,14.47,0,0,0-.07-1.74v-1.38a6.32,6.32,0,0,0-.15-1.37c-.26-.86-.47-1.74-.75-2.61-.19-.62-.41-1.26-.66-1.87a4.09,4.09,0,0,0,.9-1.09,5.19,5.19,0,0,0,.59-2.15,8.67,8.67,0,0,0-.18-2,16.75,16.75,0,0,0-.52-1.84,43.08,43.08,0,0,0-3.19-6.55c-1.18-2.07-2.41-4.12-3.53-6.16a15,15,0,0,1-.8-1.54,14.4,14.4,0,0,0-1-1.37,16.6,16.6,0,0,1-1.79-3.08,12,12,0,0,0,.39,3.68,3.19,3.19,0,0,0,.22.91,2.66,2.66,0,0,0,.31.87c.3.52.57,1.07.85,1.59,1.16,2.11,2.4,4.13,3.56,6.18a41.13,41.13,0,0,1,3,6.22,11.13,11.13,0,0,1,.44,1.57,5.16,5.16,0,0,1,.14,1.51,2.71,2.71,0,0,1-.33,1.25,2.64,2.64,0,0,1-.88.88l-.73.55.35.75a25.19,25.19,0,0,1,.86,2.39l.36,1.25c.11.43.25.84.32,1.28a5.72,5.72,0,0,0,.49,1.24l.56,1.23.62,1.25c-3-1-6.44-2.18-9.84-3.46-1.38-.52-2.75-1.06-4.13-1.61a1.2,1.2,0,0,0-.09-.56,7.43,7.43,0,0,1-.19-1.24c-.16-.43-.32-.85-.51-1.26a26.9,26.9,0,0,0-1.2-2.75c-.42-1-1-2-1.48-3.07a36.4,36.4,0,0,0-1.78-3.19l-1.95-3.2-.54-.81a2.23,2.23,0,0,1,.13-.44,8.83,8.83,0,0,0,.16-1l.09-.62c0-.22-.14-.4-.17-.62-.25-.85-.55-1.81-.81-2.83-.14-.51-.25-1-.34-1.55a7.35,7.35,0,0,1-.16-1.55,12.86,12.86,0,0,1,.18-1.52,17.25,17.25,0,0,0,.26-1.74,4.17,4.17,0,0,0-.24-2,4.28,4.28,0,0,0-1.13-1.5l-.3-.25a.78.78,0,0,0-.32-.18,3.5,3.5,0,0,0-.66-.12,6,6,0,0,0-1,0h-.9s.22.26.59.66a7.11,7.11,0,0,1,.61.72,2.83,2.83,0,0,1,.3.44c.08.17.3.16.39.31a1.74,1.74,0,0,1,.56.7,2.26,2.26,0,0,1,.11,1.06,9.33,9.33,0,0,1-.25,1.57,11.14,11.14,0,0,0-.19,1.91,5,5,0,0,0,0,.95,2.41,2.41,0,0,0,.12.92c.11.6.25,1.17.39,1.72.2.78.41,1.47.6,2.12-.57-.8-1.14-1.6-1.72-2.36-1.37-1.87-2.74-3.58-3.94-5a10.76,10.76,0,0,0-.87-1l-.93-.79c-.59-.49-1.13-.92-1.57-1.26-.87-.69-1.37-1.06-1.37-1.06s.27.58.79,1.55l1,1.76c.19.33.39.69.59,1.08s.57.66.83,1c1.18,1.38,2.51,3.14,3.9,5s2.75,3.86,4.13,5.92c.64,1.05,1.37,2.08,1.91,3.12s1.17,2.09,1.72,3.1a21.69,21.69,0,0,1,1.37,3c.35,1,.83,1.87,1.16,2.75.2.41.29.85.49,1.22l.13.21-1-.43c-1.13-.48-2.2-1-3.22-1.48s-1.92-1-2.75-1.44a7.26,7.26,0,0,0-1.21-.69c-.41-.17-.82-.29-1.18-.45-.73-.35-1.38-.6-1.91-.84l-1.65-.84s.4.52,1.18,1.46c.4.44.92.93,1.54,1.52a11.75,11.75,0,0,0,1,.87,10.48,10.48,0,0,0,1.24.75c.91.47,1.86,1,2.9,1.5s2.13,1,3.29,1.51,2.31,1,3.52,1.49c.41.71.64.81.6.25l3.14,1.22c5,1.87,10,3.53,13.75,4.74a13.63,13.63,0,0,0,1.37.44l1.29.18,1.27.15c.16.44.34.88.49,1.38a6,6,0,0,1,.48,3.27c0,.1-.12.15-.08.26a1.51,1.51,0,0,1,.13.33,2.85,2.85,0,0,0,.12.58v.63h.16l.46-.11.4-.22c-.72,2.13-1.61,4.64-2.52,7l-.37-.4c-1-.93-2-1.61-2.89-2.36l-.64-.58-.58-.58-.26-.31-.22-.31c-.15-.22-.29-.45-.44-.7-.28-.51-.55-1.07-.9-1.63a8.76,8.76,0,0,0-.56-.84l-.21-.32.39-.14a1.83,1.83,0,0,0-.92-.51,1.91,1.91,0,0,0-1.28.25l-.33.21.32,1a1.62,1.62,0,0,0,.12.43,1.59,1.59,0,0,1,.26.32,7.26,7.26,0,0,1,.45.68c.31.49.57,1,.88,1.59.16.27.33.56.53.85a3.25,3.25,0,0,0,.31.42l.33.4.72.72.73.64c1,.83,2,1.53,2.75,2.27a7,7,0,0,1,.52.57,1.27,1.27,0,0,1,.18.27c0,.11.11.17.2.23h0a24.09,24.09,0,0,1-1.37,3,10.06,10.06,0,0,1-2.16,3.44h0a4.79,4.79,0,0,1-.73-.62l-.41-.44-.43-.59c-.13-.21-.24-.47-.38-.7s-.36-.43-.52-.69l-.51-.81a6.41,6.41,0,0,1-.46-.95,21.63,21.63,0,0,1-.81-2.21c-.49-1.59-.88-3.36-1.37-5.16-.25-.88-.51-1.75-.77-2.61s-.43-1.72-.65-2.55a23.3,23.3,0,0,0-1.63-4.6,6,6,0,0,0-.5-.89,7.38,7.38,0,0,0-.66-.69c-.41-.43-.81-.74-1.13-1-.64-.53-1-.81-1-.81s.14.45.4,1.25c.11.4.28.86.43,1.37.08.26.16.55.23.85s.32.53.43.83a19.49,19.49,0,0,1,1.48,4.21c.22.83.44,1.7.66,2.57l.43,1.45h0a1.12,1.12,0,0,0-.54-.42l-.56-.35c-.37-.24-.77-.45-1.16-.68a53.78,53.78,0,0,0-9.7-4.24l-2.49-.84c-.41-.13-.84-.24-1.24-.41a1.34,1.34,0,0,0-.27-.07,2.38,2.38,0,0,0,.16-.4,4.5,4.5,0,0,1-.51.2v.27a2.06,2.06,0,0,0,0-.7l-.23-.63c-.07-.21-.28-.74-.39-1-.24-.58-.4-.89-.4-.89s-.15.31-.39.89l-.4,1-.22.62c-.1.23,0,.45,0,.7v-.32h-.77l.77.56v6.19c0,1.38,0,2.61.08,3.84-1.07-1-2.15-2-3.16-3l-1.13-1.18c-.22-1.37-.33-3.2-.43-5a29.75,29.75,0,0,0-.26-3.4,21.07,21.07,0,0,0-.55-3,.46.46,0,0,0-.09-.34.47.47,0,0,0-.14-.3l-.44-.5a7,7,0,0,0-.84-.69,5,5,0,0,0-.82-.37s.08.35.17.83v1.37c0,.19.16.3.17.51a18.18,18.18,0,0,1,.48,2.75c.11,1,.19,2.14.25,3.29,0,.77.09,1.54.15,2.31-.36-.5-.69-1.1-1.1-1.75-.22-.39-.5-.74-.72-1.2a7.59,7.59,0,0,0-.89-1.26c-.67-.84-1.22-1.88-1.9-2.93a28,28,0,0,1-1.81-3.48c-.29-.62-.58-1.25-.88-1.88l-.63-1.93c-.5-1.17-.94-2.39-1.38-3.6l.48-.29c.21-.12.48-.2.72-.31s.44-.33.7-.47a13.61,13.61,0,0,1,1.8-.88c.69-.29,1.46-.56,2.27-1a6.53,6.53,0,0,0,2.9-2.4l.37-.71h0v-.32l.1-.31.11-.32.08-.41a9.17,9.17,0,0,0,.14-3,18.29,18.29,0,0,0-.53-2.75c-.45-1.68-1-3.15-1.37-4.4a7.28,7.28,0,0,0-.32-.89l-.48-.73-.74-1.22c-.41-.68-.62-1.1-.62-1.1a1.82,1.82,0,0,0,0,.33c0,.22-.08.55-.08,1a9.14,9.14,0,0,0,0,1.48v.92a4.39,4.39,0,0,0,.3.93c.43,1.27,1,2.75,1.38,4.26a15.62,15.62,0,0,1,.46,2.36,7.58,7.58,0,0,1-.08,2.28,5.17,5.17,0,0,1-.33,1.1l-.25.46a3.79,3.79,0,0,1-.3.4,5.39,5.39,0,0,1-1.75,1.23,21.45,21.45,0,0,1-2.15.93,17.29,17.29,0,0,0-2.08,1c-.29.23-.66.33-.88.62s-.36.45-.51.69c-1.81-5.2-3.35-10.43-4.7-14.39a14.33,14.33,0,0,0-.54-1.51l-.7-1.28c-.44-.81-.84-1.51-1.19-2.06-.71-1.13-1.12-1.76-1.12-1.76s.13.76.39,2c.13.64.26,1.37.44,2.32.08.44.18.91.26,1.37a15.46,15.46,0,0,0,.49,1.5c1.06,3.12,2.26,7.07,3.63,11.21l-1.21,2.2c-.85,1.55-1.77,3.12-2.54,4.82a17.13,17.13,0,0,0-.92,2.51,30.79,30.79,0,0,1-.4-8,6.93,6.93,0,0,1,1.37-1.89c0-.08.18,0,.18-.19a1.5,1.5,0,0,1,0-.3,3.41,3.41,0,0,1,.14-.55c.11-.32.19-.53.19-.53a2.07,2.07,0,0,0-.55-.17,2.43,2.43,0,0,0-.66,0h-.51c.29-4.35.58-8.65-.38-12-.59,4.38-1.62,8.62-2.61,12.83a21.45,21.45,0,0,0-.74-3.07c-.4-1.18-.87-2.35-1.38-3.49-1.06-2.3-2.23-4.5-3-6.16-.12-.19-.11-.44-.27-.59a6.13,6.13,0,0,1-.44-.46c-.14-.13-.53-.53-.72-.75l-.65-.68a6,6,0,0,1-.09,1,6.37,6.37,0,0,0,0,1.07v.68c0,.23.2.4.27.63.77,1.75,1.94,4,3,6.17a32.66,32.66,0,0,1,1.38,3.29,16.26,16.26,0,0,1,.49,3,1.64,1.64,0,0,0,.09.62c.08.2.16.35.24.53a9.72,9.72,0,0,1,.39.94c.18.57.31.88.31.88l.29-.46c-.63,2.75-1.19,5.5-1.56,8.34-.22-.3-.47-.64-.72-1l.44.4s-.18-.57-.54-1.55c-.16-.5-.37-1.09-.61-1.76l-.38-1.07a10.43,10.43,0,0,0-.64-1.07c-1-1.75-2.11-3.44-3.29-5.08a29.22,29.22,0,0,0-2.21-2.75,25.56,25.56,0,0,0-2.31-2.11h0l.43-.38c0-.08.15-.15.23-.23s0-.18,0-.27a27.09,27.09,0,0,0,0-2.85,9.6,9.6,0,0,0-.61-3,.25.25,0,0,0-.13-.27l-.33-.15a2.79,2.79,0,0,0-.55-.2l-.51-.11s-.07.18-.17.5a2.92,2.92,0,0,1-.19.49,2.49,2.49,0,0,1-.11.29v.21a8.31,8.31,0,0,1,.47,2.36v2.62h0a17.82,17.82,0,0,0-2-1.27l-.81-.43-.77-.35a10.83,10.83,0,0,0-1.15-.44,3.83,3.83,0,0,0-.33-.81l-.13-.16a17.28,17.28,0,0,0-1.37-4.38,17,17,0,0,0-1.24-2.2l-.38-.54a1.35,1.35,0,0,1-.2-.27c0-.1-.22-.11-.34-.15a3.53,3.53,0,0,0-.78-.18,2.68,2.68,0,0,0-.8,0,4.27,4.27,0,0,1,.26,1.37v.31a.58.58,0,0,1,.18.17l.32.43a20,20,0,0,1,1.07,1.92,15.32,15.32,0,0,1,1.25,3.77c-1.38-.31-2.75-.53-3.85-.82-.41,0-.76-.29-1.14-.32a9.5,9.5,0,0,1-1.07-.15,7.6,7.6,0,0,1-1-.19,7.27,7.27,0,0,1-.8-.22c-.5-.14-.87-.28-1.13-.37l-.41-.16.29.32a8,8,0,0,0,.85.89,12.73,12.73,0,0,0,1.54,1.2l.81.5a6.1,6.1,0,0,0,.84.33l.66.17c1.76.46,3.77.72,5.73,1.38a11.43,11.43,0,0,1,1.38.51l.75.36.69.37a12.16,12.16,0,0,1,1.38.85,15.93,15.93,0,0,1,1.37.95A21.35,21.35,0,0,1,191.6,161a27.36,27.36,0,0,1,2.06,2.48c1.11,1.51,2,3,2.86,4.38a1.89,1.89,0,0,0-.11.25,2.81,2.81,0,0,0-.19.58,3.57,3.57,0,0,0-.1.35c0,.14.11.18.13.31a29,29,0,0,0,1.52,2.86,27.83,27.83,0,0,0,1.82,2.75c.09,0,0,.23.2.24l.36.09a3.26,3.26,0,0,1,.61.11h.08c0,.52-.1,1-.14,1.58A11.61,11.61,0,0,1,190,173.42a1.09,1.09,0,0,1,0-.36,27.88,27.88,0,0,1,.11-4.92c0-.93.11-1.88.07-2.82a11.7,11.7,0,0,0-.35-2.57c-.08-.18,0-.38-.16-.54a4.89,4.89,0,0,0-.4-.39,4,4,0,0,0-.7-.55,7.16,7.16,0,0,0-.66-.36v.74c0,.25,0,.51,0,.76a.85.85,0,0,1-.09.44c-.08.15.1.27.1.42a10.19,10.19,0,0,1,.28,2.12c0,.88,0,1.75,0,2.63s-.14,2.06-.17,3c-1.5-1.78-2.94-3.67-4.61-5.32-.63-.63-1.51-1.49-2.52-2.42a1.87,1.87,0,0,0,.48.11h.46l.25-.41c0-.13.15-.28.25-.43l.15-.22v-.18a15.44,15.44,0,0,1-.58-1.9,20.51,20.51,0,0,0-.82-2.14s0-.18-.13-.21l-.3-.08a2.71,2.71,0,0,0-.51-.11h-.48l-.19.43-.22.41-.14.25V159a11.6,11.6,0,0,1,.59,1.9,19.81,19.81,0,0,0,.61,2c-3.55-3.23-8.55-7.28-11.54-7.61a8,8,0,0,0,1.61,3.21,1.49,1.49,0,0,0-.3.18,3.91,3.91,0,0,0-.76.65,4.09,4.09,0,0,0-.4.53,1.78,1.78,0,0,0-.11.76,4.44,4.44,0,0,0,.36,1.61c.21.49.44.91.62,1.29a6.1,6.1,0,0,1,.44,1.24c.14.48.26,1,.4,1.46s.32,1.25.48,1.87a34.29,34.29,0,0,0-8.08-6.25,143.29,143.29,0,0,1,17.07,23.25c-6.42,1.28-18.39-5.26-23.84-9.62,0-.61-.09-1.21-.18-1.82-.11-.9-.2-1.78-.26-2.43V171l-.25-.21-.41-.33-.4-.3-.38.33a4.4,4.4,0,0,0-.37.38l-.22.25c-.1.08,0,.17,0,.26a16.27,16.27,0,0,0,.22,2.09l-.8-.75v-.09a15.77,15.77,0,0,0-.15-2.57c-.15-.92-.19-1.81-.26-2.5v-.23l-.25-.21-.44-.3-.41-.28a4,4,0,0,0-.36.35,3.42,3.42,0,0,0-.36.4l-.2.24c-.1.09,0,.15,0,.25,0,.67.16,1.57.26,2.47v.25c-.95-1-1.94-1.95-3-2.9a.72.72,0,0,0,.11-.19v-.23a22.53,22.53,0,0,1-.48-2.58c-.15-1-.27-2-.41-2.75a.42.42,0,0,0,0-.27l-.28-.21-.46-.31a4.56,4.56,0,0,0-.46-.25s-.12.15-.3.41l-.32.46c0,.08-.12.17-.19.27s0,.15,0,.25c.12.71.26,1.69.41,2.68l.09.56c-3.19-2.64-6.59-4.53-9.94-4a104.32,104.32,0,0,0,9.23,9.92h-.53l-3.41.43c-2,.2-4.13.36-6.12.36a.38.38,0,0,0-.21,0h-.33v2.07h.36a.26.26,0,0,0,.21,0,55,55,0,0,0,6.28-.36l3.36-.35.83-.09h.42a1.13,1.13,0,0,0,.4-.22,3,3,0,0,0,.38-.23,61,61,0,0,0,9,6.72c.3.18.64.36,1,.54h-.17c-1.28.25-2.9.74-4.48,1.2a26,26,0,0,1-4.26,1h-.42l-.37.25-.56.48-.56.38a4.49,4.49,0,0,0,.57.4,5.7,5.7,0,0,0,.69.37l.45.19c.16.09.31,0,.47,0a26.14,26.14,0,0,0,4.62-1c1.6-.46,3.15-.93,4.3-1.17a.71.71,0,0,0,.43-.08l.32-.29.57-.48.42-.37c1.49.58,3.19,1.07,5,1.58l-.4.22a12.89,12.89,0,0,0-1.85,1.38c0,.07-.17,0-.15.15v.3a2.17,2.17,0,0,0,0,.51,3.89,3.89,0,0,0,.09.47l.46.09.48.1h.27c.11,0,.09-.1.15-.11a11.32,11.32,0,0,1,1.56-1.11,12.78,12.78,0,0,1,1.74-.86s.14,0,.17-.07l.08-.27v-.08c6.67,1.83,13.65,3.87,15.28,8.52.09.28.2.54.31.81-.42-.3-.9-.64-1.48-1l-1.1-.71a8.82,8.82,0,0,0-1.38-.51,14.39,14.39,0,0,0-3.31-.72,4,4,0,0,1-.92-.07h-.92a15,15,0,0,0-2,.28,13.16,13.16,0,0,0-3.71,1.46c-1.17.67-2.25,1.37-3.33,2.13a18.6,18.6,0,0,1-3.21,1.7l-.91.3-.77.17a10,10,0,0,1-1.64.11,22,22,0,0,1-6.16-1.6l-.7-.23a2.13,2.13,0,0,0-.7-.18,10.39,10.39,0,0,0-1.37-.09,8,8,0,0,0-1.2,0,5.58,5.58,0,0,0-1,.12,5.39,5.39,0,0,0-1.37.34l-.46.15h.48a9.59,9.59,0,0,1,1.3.24,4.72,4.72,0,0,1,.89.25,6,6,0,0,1,1,.37,7.45,7.45,0,0,1,1.12.49c.38.19.85.25,1.29.43.91.3,1.91.67,3,1a13.93,13.93,0,0,0,3.73.67,10.38,10.38,0,0,0,2.08-.12l1.07-.25c.33-.1.6-.21.92-.32a19.65,19.65,0,0,0,3.66-1.92c1.11-.72,2.17-1.46,3.23-2.07a10.72,10.72,0,0,1,3.19-1.3,9.5,9.5,0,0,1,1.59-.22h.84l-.22.16-.25.21c-.08.07,0,.15,0,.23a18.77,18.77,0,0,1-.19,2.37,5.74,5.74,0,0,1-.51,2c0,.08-.12,0,0,.16s0,.18.1.26.11.32.15.47.07.32.1.48h.49a1.53,1.53,0,0,0,.56-.09,1.4,1.4,0,0,0,.35-.1c.12,0,.08-.18.16-.25a8.49,8.49,0,0,0,.73-2.75c.11-1,.15-1.83.19-2.47,0-.08.09-.15,0-.24l-.2-.22-.18-.17a13.35,13.35,0,0,1,2.41.55c.44.12.82.37,1.25.46l1.23.26c.77.2,1.48.35,2,.47l.55.11a17,17,0,0,0,2.5,3.56l-.74-.18a19.53,19.53,0,0,1-2.09-.67c-.68-.27-1.37-.63-2-1a22.82,22.82,0,0,0,1.65,1.61,16.3,16.3,0,0,0,1.92,1.37,19.61,19.61,0,0,0,2.09,1.07,4.44,4.44,0,0,0,1.13.33,6.64,6.64,0,0,0,1.07.25l.37.3a10.8,10.8,0,0,0-1.7-.2h-1.12a7,7,0,0,0-1,.19c-.15.08-.34,0-.45.17a2.63,2.63,0,0,0-.29.37,2.67,2.67,0,0,0-.37.66,3.21,3.21,0,0,0-.2.62h.62a6.17,6.17,0,0,1,.62.1l.33.11c.13,0,.18-.08.29-.08s.45-.09.67-.12h.83a10.88,10.88,0,0,1,1.88.25,28.58,28.58,0,0,1,3.62,1.12c.14,0,.22.15.36.13h0a28.45,28.45,0,0,1,2.26,2.13,30.58,30.58,0,0,1,3.3,4.54l-.82.75a9,9,0,0,1-1.87,1.38h-.1v.27a2.39,2.39,0,0,1-.2.43,1.3,1.3,0,0,1-.32.34,1.16,1.16,0,0,0,.32.44,2.73,2.73,0,0,0,.55.32,1.63,1.63,0,0,0,.37.13c.15,0,.22-.09.33-.11a9.82,9.82,0,0,0,2.4-1.69l.57-.49c3.31,5.5,6.75,11.73,12,12.37a10.57,10.57,0,0,1,2.52.8h-.81c-.36-.14-.75-.28-1.17-.4l-1.25-.37c-.44-.1-.92,0-1.38-.1a112.17,112.17,0,0,0-14.43.66l-3.36-.86c-.95-.59-2.13-.69-3.93.26a3.69,3.69,0,0,0,.33,1.07,39.78,39.78,0,0,1-6.64-.19c-.45,0-.87-.21-1.29-.18h-1.2a18.31,18.31,0,0,1-2-.28,7.61,7.61,0,0,1-1.24-.35l-.45-.15.34.33a6.72,6.72,0,0,0,1,.89,10.43,10.43,0,0,0,1.86,1.07c.3.15.62.28,1,.43a6.33,6.33,0,0,0,1,.25l.73.09a46.36,46.36,0,0,0,8.33.14c2.17,2.28,5.77,4.32,7.55,5.68a55.62,55.62,0,0,1-6.74,10.6,4.12,4.12,0,0,0-.76-.22,13,13,0,0,0-1.54-.25l-.93-.08a6.17,6.17,0,0,0-1,.14,9.79,9.79,0,0,1-2,.12h-.46a3.53,3.53,0,0,1-.56-.14,7,7,0,0,1-1-.4c-1.37-.68-2.91-1.84-4.82-2.62a5.49,5.49,0,0,0-3.34-.4L173,240a8.34,8.34,0,0,0-.8.33c-.25.12-.88.48-1.27.73a23.27,23.27,0,0,1-2,1.37,6.27,6.27,0,0,1-1.72.85.85.85,0,0,1-.38.09.45.45,0,0,0-.36,0c-.24.07-.47.14-.72.19H165l-.65.08a3.65,3.65,0,0,1-.93-.18l-.33-.08a1.78,1.78,0,0,0,.22.26,5.36,5.36,0,0,0,.71.72l.61.45a5.23,5.23,0,0,0,.82.41,6.78,6.78,0,0,0,1.07.29,3.25,3.25,0,0,0,1.2-.19,7.94,7.94,0,0,0,2.28-1.12c.72-.46,1.38-1,2.06-1.37a10.57,10.57,0,0,1,1-.61l.44-.19.65-.18a4,4,0,0,1,2,.33c1.53.61,3,1.75,4.69,2.57a8.23,8.23,0,0,0,1.38.54,3.22,3.22,0,0,0,.63.15,4.82,4.82,0,0,0,.75.1,13.27,13.27,0,0,0,2.44-.14,6.72,6.72,0,0,0,1-.16l.84-.36,1.38-.55.3-.1c-.7.85-1.38,1.68-2.16,2.46-6.27,6.64-8.79,11.94-10.22,21.08,7.85-5.6,10.52-19.44,17.48-26.62a10.48,10.48,0,0,1,5.5-3.15l.51.48v1.94l-.09,1.79a10.47,10.47,0,0,1-.23,1.76,13.87,13.87,0,0,1-.41,1.69,8.52,8.52,0,0,1-.65,1.6l-.41.74a3.22,3.22,0,0,1-.45.7l-.53.67-.26.33-.31.29-.64.55-.64.57a16.46,16.46,0,0,1-1.38,1.12l-1.37.88a1.56,1.56,0,0,1-.62-.6,2.33,2.33,0,0,1-.15-1.38,2.46,2.46,0,0,0-.3,1.38,2.18,2.18,0,0,0,.82,1.37l.14.11h.26l1.9-.53a15.81,15.81,0,0,0,1.84-.81,3.88,3.88,0,0,0,.45-.24,3.09,3.09,0,0,0,.39-.33c.23-.25.49-.47.74-.7l.37-.34.33-.4.63-.81a4.83,4.83,0,0,0,.55-.86l.5-.89a7.61,7.61,0,0,0,.53-1.37c2.49-2.3,6.53-5.7,6.88-9.22h.09a1.41,1.41,0,0,0,.49-.16h0a56.29,56.29,0,0,0,7.89.71l.29.1h.12a21.62,21.62,0,0,1,5.11.94l2.58.92-.21.37a11.26,11.26,0,0,0-1,3.37c-.18,1.18-.23,2.36-.46,3.48a8.52,8.52,0,0,1-1.27,3.14,8.19,8.19,0,0,1-.47.68l-.22.24h0l-.38.44a13.19,13.19,0,0,1-1.38,1.2,25,25,0,0,1-3.12,2.15c-1.08.64-2.18,1.25-3.28,1.78-2.18,1.1-4.28,2-6.08,2.86a11.71,11.71,0,0,0-1.29.61l-1.08.75c-.67.47-1.23.91-1.7,1.28a12.68,12.68,0,0,0-1.06.88l-.37.32,1.79-.51,2-.54,1.25-.33a10.54,10.54,0,0,0,1.29-.57c1.8-.82,3.92-1.76,6.16-2.89,1.13-.56,2.27-1.18,3.41-1.86a25.84,25.84,0,0,0,3.37-2.32,17.15,17.15,0,0,0,1.58-1.38l.66-.74a1.57,1.57,0,0,0,.19-.26h.17a12,12,0,0,0,2.51-.65,3,3,0,0,0,1.14-.52l1.08-.66c.48-.3.93-.62,1.37-.93a9.86,9.86,0,0,1,.94.77,12.53,12.53,0,0,1,2.38,2.94,14.33,14.33,0,0,1,1,2.06,9,9,0,0,1,.32,1,18,18,0,0,1,.63,4.94c-1.47,0-3.26-.17-5.17-.1h-1.37l-.43.07a17.09,17.09,0,0,0-1.87.48,26.76,26.76,0,0,1-2.75.9h-.27a.28.28,0,0,0-.25,0l-.46.29a8.38,8.38,0,0,1-.82.39c-.5.2-.81.29-.81.29l.18.14a2.77,2.77,0,0,0,.57.34,5.26,5.26,0,0,0,1,.4,3.92,3.92,0,0,0,.66.15c.24.07.44-.08.69-.11.94-.22,1.93-.61,2.89-.94a13.14,13.14,0,0,1,1.46-.39h1.58c1.67-.07,3.45,0,5,.08v.51l1.21-.12c3-.33,5.85-.79,8.73-.92H248l1.07-.1h2.18a10.32,10.32,0,0,1,2.22.15l-1-.56-1-.48-1.09-.4-1.1-.35-1.14-.27h-3.42c-2.42.11-4.79.43-7.12.71l-.37-.09H237a24.75,24.75,0,0,0-.16-2.85,25.63,25.63,0,0,0-.52-2.61c-.09-.34-.2-.67-.32-1a15.25,15.25,0,0,0-2.46-4.4,18.58,18.58,0,0,0-1.79-1.87c-.34-.3-.92-.76-1.28-1l-.71-.52L228.2,248c-.33.23-.68.44-1,.65s-.66.42-1,.6a4.61,4.61,0,0,0-1,.66l-.68.51a12.16,12.16,0,0,0,.91-2.75c.21-1.07.29-2.07.41-3a1.21,1.21,0,0,0,.26.2.73.73,0,0,0,.35.12h.11v-.1a.81.81,0,0,1,.24-.17,1.16,1.16,0,0,0,.39-.17h.23c.1,0,0,0,0-.11a5.46,5.46,0,0,1,.43-1.37,3.16,3.16,0,0,1,.69-1.08h0c-.09,0,0-.18-.11-.22a.51.51,0,0,1-.09-.41l.13-.4a12.27,12.27,0,0,0,2.1,0c2.19-.14,4.13-2.34,6.2-1.54,3.78,1.38,10.62-.85,15.46-.14s9.4-.68,14.32-.31a8.76,8.76,0,0,1,2.42.6c-.84,0-1.69-.13-2.57-.16a30.78,30.78,0,0,0-3.84.09,18,18,0,0,0-1.92.25,13.68,13.68,0,0,0-1.9.41c-.62.18-1.23.33-1.83.55l-1,.36c-.28.13-.55.26-.81.41a9.85,9.85,0,0,0-2.67,2.75,6.26,6.26,0,0,1-1.84,1.82c-.16,0-.32.16-.48.22a1.16,1.16,0,0,0-.5.18,6.39,6.39,0,0,1-1,.37,10,10,0,0,1-1.87.3,16.88,16.88,0,0,0-1.74.08l.42.2a12.07,12.07,0,0,0,1.22.5l.91.29c.34.1.73.13,1.15.21a8,8,0,0,0,1.38,0,4.37,4.37,0,0,0,1.51-.59,6.87,6.87,0,0,0,1.7-1.38l.24.36c.11.17.22.34.33.54s.31.27.45.45.33.33.48.51l.44.6a5.16,5.16,0,0,1,.43.71,6.59,6.59,0,0,1,.38.75c.11.28.24.55.36.84s.19.59.3.89c.2.61.37,1.24.54,1.89.33,1.29.63,2.64,1,3.9a20.92,20.92,0,0,0,1.2,3.44c.13.23.12.51.33.7l.54.54h-.57a7.93,7.93,0,0,1-1.38-.21c-.22,0-.38-.15-.59-.11h-.58a5.57,5.57,0,0,1-1,0h-.92a7,7,0,0,0,.58.74,3.79,3.79,0,0,0,.81.79l.55.44a.58.58,0,0,0,.34.09l.37.09a12.79,12.79,0,0,0,1.63.23h1.77c1.22,0,2.47-.14,3.7-.23.62,0,1.22-.09,1.81-.1h1.71a11.08,11.08,0,0,1,1.52.19l.7.14h0c-4.45,2.75-9.88,3.09-14.12,6.24-5.26,3.89-8.48,6.05-15.44,4.69-2.75-.54-5-2.61-8-.94s-.84,3.54,2.75,3.61c-4.86,3.05-13.83,1.22-17.31,6.17,6.53,1,13.89-1.28,20.63-1,3.31-.75,7.78.52,10.9-.62,1.61-.59,3.75-2.75,5.22-3.6a77.66,77.66,0,0,1,10.16-5.08c2.59-1,5.5-.63,7.92-1.56,4-1.59,5.5-6.4,11.43-6.38s6.87,5.58,9.28,11c3.19,7,2.16,16.29,4.67,23.37-3,5.3,1.38,23.37-3.63,26.5-2.65-2.81-4.71,1.13-2.05,6.63.57,1.17,1.61,6.44.39,7.19-1,.61-1.87,5.41-1.38,9.93.51,5.5-1.81,10-3.1,15.12-2.53,10,0,20.95,0,31.06.33-1.51,14.6,1.09,16.26,1.15,18.08.71,36.1,1.67,54.2,1.75,12.22,0,26,3.41,37.79-.73.08-.31,0-.59.08-.91.75.24,2,0,2.75.29-.74-1.44.16-2.65.86-1.67-1.38-5.16,2.83-15.42,2.95-20.78.11-4.92-.92-9.31-1.72-14.09-.9-5.5.28-11.16,0-16.77s-3.47-10.09-5.5-15.33c-1.27-3.41-1.05-4.42-.63-7.88,1-7.6,0-15.48.79-23.15,1-10.33.44-21.42,3.89-31.24s7.57-25.83,16.88-32.16c2.34-1.59,3.7-1.61,6.72-.23,4.83,2.2,6.67,6.53,10.48,9.72,6.68,5.58,22.68,5.79,20.48,2.82-3.24-4.36-11.82-9.19-7.25-14.36,3.51-4,8.73-4.66,11.94-9.21a112.72,112.72,0,0,1,11-13.75c3.09-3.19,8-4.57,10.86-7.41-4.63-.27-7,2.08-9.9,4.39a7.12,7.12,0,0,1-2.13-1.28,11.07,11.07,0,0,0,1.49-.55,6.57,6.57,0,0,0,1.19-.66l.4-.26h-.48a8.1,8.1,0,0,0-1.37.1,14.43,14.43,0,0,1-2-.1l-1-.15c-.39-.37-.78-.74-1.22-1.1-3.68-2.94-8.95-3.66-13.37-5,2.28-2.16,5.71-1,8.57-.68,5,.61,8.73-1.55,13.51-2.51.11.14.24.3.39.47l.41.44c.15.15.38.12.56.23a50.17,50.17,0,0,0,5.74,1.79c2.06.55,4.12,1.08,5.5,1.62.19,0,.33.21.52.18H491s-.15-.26-.47-.7a4.9,4.9,0,0,0-.63-.73,3.05,3.05,0,0,0-.42-.41c-.15-.14-.37-.14-.56-.24-1.57-.59-3.67-1.14-5.73-1.69-1.65-.43-3.27-.89-4.59-1.37a70.35,70.35,0,0,1,13.14.28c.37.14.78.27,1.19.43,3.91,1.6,8.8,4.79,13.88,7.73a70.42,70.42,0,0,0,7.75,3.93,28,28,0,0,0,3.85,1.37,16.66,16.66,0,0,0,3.71.57,6.12,6.12,0,0,0,1.71-.08,9.58,9.58,0,0,0,1.48-.51,7.4,7.4,0,0,0,2.11-1.38,6.37,6.37,0,0,0,1.07-1.13l.33-.41-.47.25a6.26,6.26,0,0,1-1.37.62,8.06,8.06,0,0,1-2.11.47,7.84,7.84,0,0,1-1.37,0,2.66,2.66,0,0,0-.69,0h-.73a14.46,14.46,0,0,1-3.26-.5,27.2,27.2,0,0,1-3.59-1.24,66.07,66.07,0,0,1-7.5-3.82c-3.41-2-6.77-4.12-9.9-5.79a94.17,94.17,0,0,1,13.35,2.13c2.75.68,9.18,3.54,12.37,3.43,1.71,0,1.64.55,2.93-.63-.47-.51-.56-1.38-.88-1.76,3.37-1.65,8.25-2.42,12-3.41,3.23-.86,10.6-2,12.49-5.2a3.17,3.17,0,0,0-2.75-.18M443.42,149.15c0,.37.08.76.09,1.14h0a6.25,6.25,0,0,1-.78.33h-.28c.35-.5.69-1,1-1.56m-35.53,2.83a28,28,0,0,0,3.17.27h2.32a.57.57,0,0,0,.26,0,5.12,5.12,0,0,0,.62-.31l.41-.35a11.48,11.48,0,0,0,1.86-2.75,5.24,5.24,0,0,1,.71-1.05l.14-.13h2a10.41,10.41,0,0,1,1.38.18c.93.2,1.85.44,2.75.73s1.88.65,2.83,1l2.85,1.08c.75.28,1.51.55,2.29.8A45.39,45.39,0,0,1,425.8,153c-1.89.37-5.85-.29-7.67.55-2.25,1.06-3.3,5.91-6.17,5.66-1.75-.15-3.38-3.68-4.55-7.12l.51.08m-84.58-16.63c0-.1,0-.23.11-.25s.29.19.37.41l-.52.11a1.22,1.22,0,0,0,0-.27m-38.89-10.42h0m0,0a.14.14,0,0,1-.17.12h-.05c-.09,0-.09-.1-.15-.15ZM298.33,136c-2.37-.87-5.14-1.55-7.88-2.67a17.92,17.92,0,0,1-3.85-2.2,12.21,12.21,0,0,1-2.86-3.41c-.17-.33-.34-.66-.49-1l.13.1.42.3.5-.19a17.12,17.12,0,0,1,4.13-.78l2.19-.16h.53a72.75,72.75,0,0,0,8.39,10.45c-.39-.15-.79-.26-1.2-.42m-104,92.5a12.43,12.43,0,0,1-1.2-1.31l1.14-.1c1.23-.11,2.46-.22,3.67-.3l.18.94c.22,1.12.44,2.24.65,3.35a12.78,12.78,0,0,1-4.44-2.58M206.82,175l.49-.55c0-.09.21-.17.21-.27a1.5,1.5,0,0,1,0-.3l.15-.61a17,17,0,0,1,.88-2.38c.66-1.48,1.49-2.92,2.31-4.41l.1-.11a1.4,1.4,0,0,0,.18-.32,1.93,1.93,0,0,0,0-.34v-.43c.23.68.45,1.38.7,2,.52,1.37,1,2.75,1.59,4.12l.85,2,.91,1.94c.59,1.29,1.27,2.48,1.9,3.62a23.83,23.83,0,0,0,2,3.09,7,7,0,0,1,.49.72c-3.76-1.59-8.25-2-11.35-5.2a8.32,8.32,0,0,1-1.65-2.45l.18-.2m-9.55,25.77h.88v.43l-.92-.43m5.89,5.41a7.81,7.81,0,0,0-2.6-3.55,5.42,5.42,0,0,0-.19-.89c0-.31-.11-.66-.14-1h.66l3.15-.1c-.22,1.84-.55,3.67-.88,5.5m1.11-8.06v.44l-3.41.11h-.67v-.13c0-.1.11-.2,0-.31a1.49,1.49,0,0,1-.18-.3c-.1-.19-.21-.38-.28-.54l-.24-.53a4.33,4.33,0,0,0-.51.31,5.37,5.37,0,0,0-.51.44l-.3.31c-.11.11,0,.24,0,.38a1.27,1.27,0,0,0,0,.39h-1.74c-1.29,0-2.57-.09-3.84-.18l-.27-.15c-5.39-3.54-6.09-10.18-9.46-15.26.16-.76.27-1.65.39-2.51a10.25,10.25,0,0,1,.6-2.44c0-.09.13-.11,0-.22s0-.2-.11-.28-.12-.37-.16-.51l-.14-.51a4.71,4.71,0,0,0-.52.09,2.31,2.31,0,0,0-.56.19l-.35.14c-.12,0,0,.2-.13.29a11.63,11.63,0,0,0-.75,3v.51l-4-5.1v-.84a5.19,5.19,0,0,1,.19-1.18,2.54,2.54,0,0,1,.17-.46l.22-.33c0-.06.12,0,.08-.15v-.27a4.34,4.34,0,0,1,0-.51v-.5a2.12,2.12,0,0,0-.51-.13,2,2,0,0,0-.6,0h-.39c-.15,0-.14.18-.23.26a4.21,4.21,0,0,0-.73,1.37v.28c-.63-.77-1.27-1.53-1.91-2.27a.94.94,0,0,1-.1-.28c-.43-1.37-.91-3.42-1.37-5.49l-.42-1.5a7.85,7.85,0,0,0-.56-1.56c-.22-.46-.44-.88-.58-1.21a2,2,0,0,1-.19-.79v-.17a.12.12,0,0,0,0-.16,2.17,2.17,0,0,0-.11-.42,3.66,3.66,0,0,1,0-.81v-.09c2.63,3.23,7.09,6.5,9.38,8.58,4.93,4.48,6.87,14.14,13.47,15.12a55.67,55.67,0,0,1,23,7.93,39.36,39.36,0,0,1,4.12,2.75h-1.15a2.65,2.65,0,0,0-.74.11l-.73.22a4.22,4.22,0,0,0-.66.36,5.14,5.14,0,0,0-1.13,1,6.31,6.31,0,0,0-.81,1.11,6.46,6.46,0,0,0-.58,1.18l-.27.59-.18.61-.13.37h-3.74c-1.51,0-3,.07-4.51.12h-.85a4.17,4.17,0,0,0-.19-.44m-2.41,44.47v-.15l.09-2v-1.58a2.57,2.57,0,0,1,.33.33c1.19,1.38.49,2.37-.39,3.33m15.41-7.84a1.77,1.77,0,0,0,0-.46v-.17l-.24-.11-.42-.18a.86.86,0,0,0-.78.08,2.57,2.57,0,0,0-.37.28l-.21.16c-.09,0,0,.1,0,.16v.19a48.87,48.87,0,0,1-8.15-1.21,1,1,0,0,0-.11-.3.17.17,0,0,1,0-.14h-.26l-.43-.15-.41-.2a1.85,1.85,0,0,0-.37.31l-.08.11-1.72-.5-2.56-.74c-.21-1.11-.41-2.23-.63-3.33l9.7-.93,2.75-.26a5.3,5.3,0,0,0,1.38-.13l1.37-.3.42-.11c3.46,2.08,7.12,5.06,7.94,7a20.35,20.35,0,0,1-6.57,1m39.21-7.33c-5.28.53-10.87,1.91-15.92,1.83l.12-.34a2.61,2.61,0,0,1,.24-.66c.08-.25.09-.25.14-.39s-.09-.24-.09-.38a31.17,31.17,0,0,1-.55-4l-.3-4.13v-.37l-.26-.35a6.26,6.26,0,0,0-.45-.57c-.14-.16-.29-.31-.44-.47l-.35.55c-.09.18-.22.39-.33.62l-.19.39c-.1.14,0,.26,0,.4l.3,4.12a35.73,35.73,0,0,0,.59,4.24.66.66,0,0,0,.1.41l.33.33a5.11,5.11,0,0,0,.55.48l.14.1a18.1,18.1,0,0,1-3.66-.49c-3-.72-5.79-3-8.63-4.12s-4.53-1-7-3.34c-1.38-1.22-1.83-2.61-3.54-3.52.2-3.36,1.9-7.27,3.33-10.26-2.75,1.5-4.84,5.89-7.64,7.18-.44-1.37-1-2.75-1.38-4.28a26.37,26.37,0,0,1-.81-3c-.11-.48-.14-.95-.22-1.38a5.92,5.92,0,0,1,0-1.19c0-.36.1-.36,0-.54a2.16,2.16,0,0,1-.16-.49,6.34,6.34,0,0,1-.21-.86c-.08-.53-.12-.83-.12-.83-.22.19-.43.4-.64.6a4.89,4.89,0,0,0-.59.84,3.37,3.37,0,0,0-.3.56c-.11.2,0,.43,0,.66a14.11,14.11,0,0,0,.29,3A33.06,33.06,0,0,0,210,211c.46,1.37.94,2.75,1.38,4a4.21,4.21,0,0,1-1.58-.56c-3-1.69-2.88-8.95-4.13-13.75h.24c1.5,0,3-.1,4.45-.11h2.22c.74,0,1.45.07,2.18.09h.83l.26-.81.33-1.07.16-.52.22-.5a4.78,4.78,0,0,1,.47-.93,3.71,3.71,0,0,1,.56-.8,2.52,2.52,0,0,1,.68-.58l.37-.2.4-.11a1,1,0,0,1,.42-.07h.46a4.47,4.47,0,0,1,1,.16,8.52,8.52,0,0,1,1,.33,9.11,9.11,0,0,1,1,.47c.34.14.73.23,1.09.37l.48.19c2.93,2.89,5.5,6.07,8.76,9.37l.79.79a8.17,8.17,0,0,0-.85.6,5.54,5.54,0,0,0-.92.89,10.78,10.78,0,0,0-.73,1,12.7,12.7,0,0,0-.51,1.2,6.26,6.26,0,0,0-.23,1.28,4.65,4.65,0,0,0,0,1.29,4.48,4.48,0,0,0,.3,1.25,4.84,4.84,0,0,0,.52,1.16,5.31,5.31,0,0,0,.69,1,6,6,0,0,0,.83.91l.16.14-.33.4a7.25,7.25,0,0,1-1,.88,8.46,8.46,0,0,1-2.57,1.14,9.16,9.16,0,0,1-1.38.3,3.05,3.05,0,0,1-.74,0l-.73.22c-.49.15-1,.28-1.52.41l-1.6.35a12.25,12.25,0,0,0,1.56.6c.53.17,1.08.31,1.63.43a5,5,0,0,0,.85.11l.84-.12a13.53,13.53,0,0,0,1.68-.35,10.62,10.62,0,0,0,3.19-1.37,9.61,9.61,0,0,0,1.37-1.17l.6-.7.49-.77.45-.7-.72-.64-.73-.64a4.64,4.64,0,0,1-.64-.69,3.23,3.23,0,0,1-.5-.76,3,3,0,0,1-.38-.81,3.51,3.51,0,0,1-.2-.85,3,3,0,0,1,0-.85,5.67,5.67,0,0,1,.15-.84,8,8,0,0,1,.34-.8,5.11,5.11,0,0,1,.51-.71,3.36,3.36,0,0,1,.63-.62,3.82,3.82,0,0,1,.75-.51l.37-.19a99.39,99.39,0,0,0,20.51,14.1,12.74,12.74,0,0,1,.55,1.79,12.11,12.11,0,0,1,.39,3.49m-10.91-23.15c-.3-.77-.6-1.54-.89-2.3a56,56,0,0,0,5.21,4.27c2.21,1.58,7,3.75,6.2,7.28-.82,3.78-3.85,1.31-5.84,0a21.89,21.89,0,0,1-1.94-1.51v-.63c0-.24-.19-.41-.25-.63Zm6.88-2.56c-3.87-.4-6.88-2.64-10-4.92h0c-.27-.32-.52-.56-.73-.78-.41-.43-.68-.51-.7-.26a22.06,22.06,0,0,0-7.82-4,81.26,81.26,0,0,1,8.07,7c.67,1.74,1.55,4,2.43,6.27l1.38,3.76a88.46,88.46,0,0,1-6-7.74,49,49,0,0,0-6.71-7.17c-.1-1.72-.19-9.11-.19-10.6.42.11.84.26,1.25.4l2.49.83c1.65.56,3.28,1.17,4.86,1.84a46.21,46.21,0,0,1,4.62,2.3l1.12.64.53.36c.1,0,.17.14.26.19l.32.1,1.68.45c.38,1.49.74,3,1.19,4.44a21.27,21.27,0,0,0,.9,2.46c.16.39.37.76.55,1.12a8,8,0,0,0,.62,1,2.73,2.73,0,0,0,.7.88,6.17,6.17,0,0,0,.88.55c.29.16.56.28.81.39l.75.19a3.38,3.38,0,0,0,.95.1c-.89.58-2,.4-4.23.18M267.34,168c-.52-.52-1.07-1-1.62-1.47-1.13-.89-2.27-1.69-3.39-2.5-.55-.41-1.08-.81-1.58-1.24-.29-.23-.57-.48-.84-.74V162a2.38,2.38,0,0,0,.24-.74c3.37,2.57,9,6.19,9.24,9.34a2.67,2.67,0,0,1,0,.4l-.08-.16c-.2-.34-.38-.71-.58-1a13.7,13.7,0,0,0-1.38-1.76m-8.25,59.45a13.63,13.63,0,0,0-.38-3.54c3,1.59,6,3.18,9.09,4.86a18.3,18.3,0,0,0-8.71-1.37m14,36-.14-.12c-.19-.19-.47-.15-.7-.28l-.77-.23a5.79,5.79,0,0,1-.83-.16,12,12,0,0,0-1.8-.22H267l-1.9.11c-1.07.08-2.12.16-3.11.19-.06-.29-.12-.59-.16-.9a2,2,0,0,0-.08-.63,5.83,5.83,0,0,1-.28-.62,22.76,22.76,0,0,1-1.1-3.13c-.33-1.21-.63-2.52-1-3.86-.17-.68-.36-1.36-.58-2l-.33-1c-.14-.31-.28-.64-.41-.94s-.29-.62-.46-.93a9.67,9.67,0,0,0-.51-.83l-.56-.77c-.19-.25-.43-.44-.62-.65l-.29-.32a.57.57,0,0,0-.31-.24l-.73-.25-.32-.11c.3-.39.59-.78.9-1.11a5.76,5.76,0,0,1,1-.9c.23-.13.46-.25.7-.36h.39l.4-.13a12.22,12.22,0,0,1,1.66-.51c.55-.17,1.14-.25,1.72-.37a11.89,11.89,0,0,1,1.77-.22,25.33,25.33,0,0,1,3.59-.1,31.87,31.87,0,0,1,3.51.26c1.14.13,2.33.32,3.41.5,5.37,4.4,10.27,12.18,10.07,16.84-5.3-.1-7,1.73-10.29,4.12m9.43-67.89c-1.86,5.83-7.18,4.47-11.44,5.67a3.8,3.8,0,0,1,2.86,1.15c-14-.85-1.83-12.62.18-20.1,1.37-5,1-10,2.38-15,.12-.46.29-.92.45-1.37,2.09,2.83,4.3,5.69,4.92,8.88.48,2.48-1.15,3.45.08,3.62,2.49,2.91,1.75,13.4.57,17.13m23.22-18.7c-3.51,3.75-4.77,13.95-11.33,13.4a30,30,0,0,0-1.26-8.14,8,8,0,0,0,.83-1,13.58,13.58,0,0,0,1.09-1.73,17.38,17.38,0,0,0,.85-1.86c.26-.63.42-1.29.62-1.94s.26-1.37.4-2l.22-2c0-.67.08-1.37.1-2h0c.75-.3,1.78-.76,2.75-1.16a14.6,14.6,0,0,1,2.53-.8h.24l.18-.26a4.84,4.84,0,0,1,.33-.46c.2-.26.31-.44.31-.44l-.4-.37q-.24-.18-.48-.33l-.32-.18h-.3a22,22,0,0,0-2.85.91l-2,.84v-6c3.45,4.22,14.87,6.71,17.87,7.69-1.94,4.12-6.39,4.56-9.35,7.75m11.78-9.77-.22-.25c-.08-.1-.23-.07-.34-.14a3.91,3.91,0,0,1-.79-.4,7.33,7.33,0,0,1-.83-.64c-.57-.5-1.14-1.13-1.75-1.78a22.2,22.2,0,0,0-1.95-1.93,8.8,8.8,0,0,0-1.13-.79l-.56-.31-.58-.24-.28-.11a.32.32,0,0,0-.27,0l-.55.13a2.39,2.39,0,0,0-.81.33,3.11,3.11,0,0,0-.63.38l.6.4a2.82,2.82,0,0,1,.58.45l.3.29c.1.1.23,0,.36.14l.38.14.4.23a6.29,6.29,0,0,1,.85.61,20.64,20.64,0,0,1,1.76,1.74l.62.66c-1.28-.51-2.5-1.06-3.54-1.37-3.26-1.09-9-5.5-12.28-6.12v-.08l.18-1.9.27-1.82c.1-.61.25-1.21.37-1.81a22.37,22.37,0,0,1,1.08-3.49,14.11,14.11,0,0,1,.75-1.63c.26-.53.62-1,.92-1.49a8.27,8.27,0,0,1,2.49-2.26,6.39,6.39,0,0,1,2.5-.84,129.51,129.51,0,0,1,9.05,12.79c-1.29-.37-2.75-.7-4.12-1.17a5.94,5.94,0,0,1-1.16-.49,4.06,4.06,0,0,1-.92-.66,21.73,21.73,0,0,1-1.65-1.7c-.15-.11-.19-.31-.39-.37l-.52-.2a3,3,0,0,0-1.1-.21.54.54,0,0,0-.36.14.43.43,0,0,0-.13.26.71.71,0,0,0,0,.29.76.76,0,0,0,.09.18l.11-.15a.45.45,0,0,1,.17-.11c.08,0,0,.12,0,.16a1.3,1.3,0,0,0,.14.61,1.17,1.17,0,0,1,.13.45c0,.15.24.22.33.37.48.51,1.05,1.16,1.78,1.82a6.13,6.13,0,0,0,1.37.93,7.85,7.85,0,0,0,1.46.63c1,.35,1.92.58,2.75.81s1.64.43,2.27.65c.16,0,.27.18.44.17h.68a38.57,38.57,0,0,1,3.52,8.42,4.28,4.28,0,0,1-1.82.44M351.81,160a8.24,8.24,0,0,0,2.06-1.17,26.86,26.86,0,0,1,3.37-2.42c1.35-.63,2.72-1.19,4.12-1.69v6.63l-.37.08a3.82,3.82,0,0,1-.68.07h-2.13a22.5,22.5,0,0,1-2.85-.22,13.49,13.49,0,0,1-3.92-1.2l.56-.16m-22.6.77a8.85,8.85,0,0,1-.8-3l.35-.13,2.65-.92a15,15,0,0,1,0,4.12c0,.2-.15.33-.11.51a2.35,2.35,0,0,1,0,.53v.86a3.31,3.31,0,0,1,0,.63v.22a14.91,14.91,0,0,1-2-2.83m6.87,9.24.84.17c-.18.53-.36,1-.56,1.55a14.33,14.33,0,0,0-.28-1.72m13.75,28.5-.32-.08-.26-.55-.59-1.11a22.15,22.15,0,0,0-1.37-2,36.7,36.7,0,0,0-3.25-3.58,24.46,24.46,0,0,1-3-3.64l-.37-.5-.5-.55a7,7,0,0,0-1.1-.92l-.17-.11a28.78,28.78,0,0,1-1.81-5.95l.1-.14a5.51,5.51,0,0,1,1.27-1.37c.45-.37.93-.69,1.37-1h0c1.38,1.38,3.25,2.32,4.87,3.64a7.44,7.44,0,0,1,1.79,2,2.26,2.26,0,0,1,.28.56l.13.37h0l-.54.57a7.36,7.36,0,0,0-.62.74,5.54,5.54,0,0,0-.3.53,1.62,1.62,0,0,0-.12.43V187a5.23,5.23,0,0,0,.13.87,20.12,20.12,0,0,0,.94,3.13c.16.47.34.94.51,1.38s.36.94.55,1.37c.38.88.78,1.66,1.11,2.38a10.76,10.76,0,0,0,.47,1c.2.28.4.57.56.83l.21.35h.38m10.91-3.19c-.13.11-6.88,2.1-9.92,2.83v-.6a10.45,10.45,0,0,0-.18-1.12,11.82,11.82,0,0,0-.48-1.1c-.35-.74-.74-1.51-1.1-2.32-.18-.41-.34-.83-.49-1.27s-.35-.92-.52-1.37a16.47,16.47,0,0,1-.84-2.75c0-.24-.06-.48-.11-.72v-.6a2,2,0,0,1,.53-.72l.58-.6a2.42,2.42,0,0,0,.34-.45,3.24,3.24,0,0,0,.2-.36,1.49,1.49,0,0,0,.09-.66.37.37,0,0,0,0-.21v-.42l-.13-.38a7.41,7.41,0,0,0-.4-.86,9.36,9.36,0,0,0-2.75-2.75c-1.68-1.38-3.32-2.27-4.44-3.25a8.73,8.73,0,0,0,.77-.59l.38-.29a3.86,3.86,0,0,0,.3-.38,7,7,0,0,0,.91-1.6,4.83,4.83,0,0,0,.33-1.55v-1.28a6.4,6.4,0,0,0-.42-1.67l-.2-.57v.59a7.44,7.44,0,0,1-.15,1.63.86.86,0,0,1-.11.52l-.2.53a4.6,4.6,0,0,1-.6,1.06,4.81,4.81,0,0,1-1,.92,15.34,15.34,0,0,1-1.21,1l-.42.3-.46-.48a3,3,0,0,1-.42-.59,4,4,0,0,1-.47-1c-.08-.24-.14-.37-.14-.37v.39a4.17,4.17,0,0,0-.08,1.17,4.85,4.85,0,0,0,.39,1.67c-.51.35-1.06.71-1.61,1.16l-.47.38a2.49,2.49,0,0,0-.08-.72,15.6,15.6,0,0,0,.77-1.38,34.54,34.54,0,0,0,1.89-4.89l.35-1.09-1.13-.23-2.75-.57a1.77,1.77,0,0,1-.6-.15c-1-1.57-2.38-2.42-3.88-4.12l.21-.09a2.17,2.17,0,0,0,.57-.33,3.35,3.35,0,0,0,.81-.74l.42-.53a2.67,2.67,0,0,0,.15-.68,18.37,18.37,0,0,0,0-5.13h.18c.64-.17,1.25-.5,1.94-.67a7.31,7.31,0,0,1,4.22-.11l.9.29a16.68,16.68,0,0,0,1.5,1.75,7.47,7.47,0,0,0,1.47,1.15l.91.51c.29.15.55.25.84.37a14.18,14.18,0,0,0,1.77.6,21.21,21.21,0,0,0,1.72,1.26,15.09,15.09,0,0,0,6,2.21,20.93,20.93,0,0,0,3.16.25h2.33a2.29,2.29,0,0,0,.78-.09h0a40.26,40.26,0,0,1-.48,4.4c-.48,2.86-1.07,5.23-1.38,7.69h-.17a7.89,7.89,0,0,1-3.95-1,3.24,3.24,0,0,1-.67-.61,3.42,3.42,0,0,1-.72-.65,6.07,6.07,0,0,1-1-1.88l-.13-.29h-.15c-.63,0-1,.28-1.54.28a7.11,7.11,0,0,0,1.12.3,6,6,0,0,0,.27,2.39,5.34,5.34,0,0,0,.62,1.27,2.68,2.68,0,0,0,.52.49,4.81,4.81,0,0,0,.57.44,7.12,7.12,0,0,0,2.5,1,14,14,0,0,0,2.5.32h.14a20,20,0,0,0,.27,3.79c.48,2.9,4.13,11.66,1.65,13.9m40.11-16.81c-.18,1.37-.29,2.67-.36,3.74,0,.23-.11.44,0,.66a3.19,3.19,0,0,1,.19.62c0,.19.1.26.14.38-1,.4-2,.76-3,1.07-.6.22-1.21.31-1.75.55l-1,.49c2.07-2.41,3.91-5,5.85-7.51m-30.77-21.24h.11l-.11.07v-.15m.6,23.18c0-.77-.13-1.54-.19-2.31a61.18,61.18,0,0,1,6.61,1c.75.15,1.49.33,2.22.53.36.1.7.22,1.06.33a7.72,7.72,0,0,0,1,.38,6.24,6.24,0,0,1,2,.7,1.55,1.55,0,0,1,.81,1.76,3.55,3.55,0,0,0,.32-.53,1.89,1.89,0,0,0,.12-.67,2.49,2.49,0,0,0-.45-1.37,6.79,6.79,0,0,0-1.95-1.79,5,5,0,0,0-1.17-.48c-.39-.13-.78-.26-1.17-.36-.78-.23-1.57-.41-2.35-.58a70.1,70.1,0,0,0-7.2-1,151.37,151.37,0,0,1-.38-16.22c.72-.37,1.38-.76,2.08-1.13l.17.12a17.73,17.73,0,0,1,1.81,1.54c.56.54,1.18,1,1.72,1.63a37.81,37.81,0,0,1,3,3.64c.44.65.93,1.26,1.37,1.94s.79,1.37,1.17,2a16.27,16.27,0,0,1,1.06,2.08c.3.71.65,1.37.93,2.12s.51,1.37.76,2.15l.37,1.08.28,1.08c.19.72.37,1.45.55,2.15s.23,1.18.33,1.76c-2.75,3.89-5.69,8.37-9.16,10.23-8.61,4.63-5.28-6.7-5.72-11.79M386.63,194c0,1.21-.33,2.34-.35,3.43s-.18,2.13-.29,3.1a2.44,2.44,0,0,1-.1.81,35,35,0,0,0-9.54,2.85,2.65,2.65,0,0,1-2.12.11c4.33-3.26,8.25-7,12.38-10.61V194m.26-17.87-.4-1.13-.8-2.27c-.3-.74-.66-1.47-1-2.21-.16-.39-.34-.77-.53-1.16V169a8,8,0,0,1,.5-2c.29-.73.71-1.52,1.1-2.36.79-1.71,1.5-3.37,2-4.7,0-.18.19-.32.15-.5a3.33,3.33,0,0,0-.07-.54,5.92,5.92,0,0,0-.27-1,1.24,1.24,0,0,0-.17-.23c-.11-.08-.29-.11-.33-.07a.36.36,0,0,0-.22.16,2.6,2.6,0,0,0-.1.25h0a2.56,2.56,0,0,0-.42.39l-.33.31c-.14.11-.08.29-.18.43-.45,1.22-1.17,2.91-1.91,4.52-.39.81-.81,1.64-1.16,2.5a1.26,1.26,0,0,1-.13.43c-.1-.16-.2-.32-.28-.48-.44-.7-1-1.38-1.37-2.05a40.79,40.79,0,0,0-3.21-3.86c-.57-.62-1.22-1.14-1.83-1.72s-.94-.87-1.37-1.27c.58-.34,1.15-.7,1.69-1.05l.95-.61a4.76,4.76,0,0,0,.87-.62c.53-.47,1-.92,1.48-1.37a25.1,25.1,0,0,0,2.24-2.37,8.91,8.91,0,0,0,1.2-1.73,3.28,3.28,0,0,0,.2-.52v-.15l-.09.16a2.69,2.69,0,0,1-.33.41,9.17,9.17,0,0,1-1.56,1.28c-.7.51-1.6,1.07-2.65,1.68-.52.3-1.09.62-1.69.93s-1.14.79-1.79,1.17l-2.36,1.46c-.64-.47-1.27-.91-1.89-1.37.11-1.2.25-2.41.43-3.59h0c.12-.1.08-.28.16-.4a8.47,8.47,0,0,1,.58-.85,5.86,5.86,0,0,1,.81-.84,10.61,10.61,0,0,1,1-.77c.4-.22.79-.47,1.23-.68.86-.44,1.8-.82,2.75-1.37.44-.22.86-.52,1.26-.77a9.32,9.32,0,0,0,1.06-.92c.13-.19.36-.28.43-.5s.09-.4.12-.6a2.58,2.58,0,0,0,0-1,7,7,0,0,0-.1-.8L380,142a3.71,3.71,0,0,1-.68.43l-.41.2c-.16,0-.18.21-.3.3a6.15,6.15,0,0,1-.77.68c-.33.2-.66.42-1.06.63-.77.43-1.69.81-2.63,1.29-.45.22-.93.5-1.37.76l-.81.58c.08-.4.15-.8.24-1.2,1.15-5.13,3.95-9,6.32-13.65a66.53,66.53,0,0,1,4.9-7.82,10.61,10.61,0,0,0,.24,1.37,4.4,4.4,0,0,0,.15.87,4.83,4.83,0,0,0,.37.88c1.09,2.39,2.45,5.66,4,8.88.48,1,1,1.91,1.48,2.83v.74l.11.19.17.22.15.17.16.1a.61.61,0,0,0,.27,0h0l.23.38c.42.73.93,1.38,1.37,2a20.92,20.92,0,0,0,1.38,1.73c.26.23.42.55.7.73a6.6,6.6,0,0,0,.82.46,7,7,0,0,0,1.38.6l.7.19c-.84,2.65-1.69,5.5-2.47,8.25-.4,1.52-.82,3.05-1.15,4.56-.16.77-.33,1.53-.49,2.27s-.28,1.5-.4,2.23c-.27,1.45-.41,2.9-.59,4.26a24.91,24.91,0,0,0-.21,3.86,12.49,12.49,0,0,0,0,1.73c.07.47.15.93.26,1.38-.82.67-1.63,1.37-2.41,2.14a24,24,0,0,0-1.9,2.14c-.19-.73-.37-1.48-.57-2.22Zm0-18h.2a.18.18,0,0,1-.2,0h0m25.61,29.26a4.54,4.54,0,0,0-.55.89,5.66,5.66,0,0,0-.29.88c0,.14-.11.28,0,.42l.2.37v.08a10,10,0,0,0-1.57,1.17c-.14.15-.29.27-.44.42a7.63,7.63,0,0,0-2.83.64c-2.49,1.21-3.4,4.12-6.4,5.5-4,1.91-8.58,2.54-13.17,3.31V201c.26-1,.58-2,.77-3.13q.15-.85.24-1.74c.05-.59.12-1.19.15-1.83s.08-1.48.11-2.25c.45-.36.89-.73,1.37-1.07a30.3,30.3,0,0,0,3.42-3.08l1.85-.28a10.4,10.4,0,0,0,1.65-.26,15.75,15.75,0,0,0,1.77-.55,35.25,35.25,0,0,0,4-1.46,34.84,34.84,0,0,0,4.12-2.33c1.21-.8,2.34-1.67,3.51-2.51h.14a.61.61,0,0,0,.42,0l.39-.13c.85-.25,1.66-.48,2.46-.66a1.72,1.72,0,0,0,.27.27,3.21,3.21,0,0,0,1.06.72,2.84,2.84,0,0,0,1.38.2,4.31,4.31,0,0,0,1.21-.31,15.69,15.69,0,0,0,3.14-2.35,14.25,14.25,0,0,1,1.38-1.08,5.31,5.31,0,0,1,1.37-.68,1.26,1.26,0,0,1,.61,0,2.54,2.54,0,0,1,.66-.21,3,3,0,0,1,.84,0c.31.06.62.14.92.23a3.9,3.9,0,0,0-.5-.89,3.41,3.41,0,0,0-1.93-1.26,5.29,5.29,0,0,0-1.19.2,7.14,7.14,0,0,0-1.91,1c-.52.38-1,.78-1.51,1.21a13.74,13.74,0,0,1-2.64,2,1.67,1.67,0,0,1-.54.15.68.68,0,0,1-.4,0,1.71,1.71,0,0,1-.44-.32,3.73,3.73,0,0,1-.45-.52l-.44-.55-.51.11.81-.74a15.66,15.66,0,0,1,3.87-2.75l.48-.2.59-.19a5.36,5.36,0,0,1,1.11-.3c.35-.08.73-.15,1.12-.21l1.15-.15h.87a14.27,14.27,0,0,1,1.19,1.14,12.17,12.17,0,0,1,1.08,1.38,16.56,16.56,0,0,1,.89,1.45,10.51,10.51,0,0,1,.71,1.57,11.66,11.66,0,0,1,.54,1.64v.11l-.65.79c-.26.28-.53.61-.89.94a4.55,4.55,0,0,1-.58.49c-.22.16-.26.44-.48.64a10.15,10.15,0,0,1-1.26,1.28,11.34,11.34,0,0,1-1.68,1.15,23.3,23.3,0,0,1-4.25,1.86c-1.52.53-3.12,1-4.6,1.65l-.26.11.17-.25a2.78,2.78,0,0,1,.43-.41c.19-.14.39-.27.59-.39.88-.47,2-.82,2.83-1.19.1-.09.24,0,.29-.16l.18-.34a4.17,4.17,0,0,0,.25-.67,3.8,3.8,0,0,0,.16-.55l-.53-.15-.57-.16-.33-.09c-.12,0-.16.09-.27.09-.74.35-1.83.68-3,1.3a6,6,0,0,0-.86.56,3.81,3.81,0,0,0-.77.73m6.18,4.56a50.66,50.66,0,0,1-5.5-.29A16.46,16.46,0,0,1,415,191c1.38-.57,2.93-1.06,4.5-1.61a26.59,26.59,0,0,0,4.61-2,14,14,0,0,0,2-1.37,9.26,9.26,0,0,0,1.51-1.49,2.66,2.66,0,0,0,.57-.8,5.31,5.31,0,0,0,.26-.86,8,8,0,0,0,.25-1.38,4.45,4.45,0,0,0,0-.73,7.71,7.71,0,0,1,.24,1.16,12.92,12.92,0,0,1,.24,1.75c0,.57.12,1.16.11,1.76s0,1.18,0,1.77v.89c0,.31.11.59.12.9l.21,1.84v.23a101.74,101.74,0,0,1-10.88,1.24M463.83,207h3.08a10.59,10.59,0,0,0,1.38,0h.09a39.38,39.38,0,0,0,3.87.88,18.55,18.55,0,0,1-4.9,3c-3.24,1.29-6.3,1.13-9,3.84-2.89,2.93-3.52,7.15-6.5,10.09-3.23,3.16-4.76,3.31-9.1,3.2-3.36-.08-6.11,1.18-9.34,1.13s-6.71-.7-7.55-4.21c-.72-3.05,2.35-13.32,5.5-14.25a16.4,16.4,0,0,0,5.31-3l.29.24.95.82a13.39,13.39,0,0,0,1.21.73,21.22,21.22,0,0,0,2.94,1.37,12.7,12.7,0,0,0,3.7.86h1l1-.1h.52l.47-.1a5.11,5.11,0,0,0,1-.24,28.49,28.49,0,0,0,3.74-1.38,37.41,37.41,0,0,1,6.87-2.58,15.84,15.84,0,0,1,1.66-.25c.54,0,1.06-.08,1.61-.1m-1.91-1.83a9.92,9.92,0,0,0-1.8.28,39.13,39.13,0,0,0-7.29,2.75,26.37,26.37,0,0,1-3.48,1.29,5.25,5.25,0,0,0-.85.21l-.45.09h-.4l-.82.09h-.82a13.23,13.23,0,0,1-5.73-2c-.43-.22-.77-.54-1.18-.71l-.94-.34a17.93,17.93,0,0,1,7.17-3.92c5.17-1.1,11,.54,16.6,2.31"/>
      <path class="cls-5" d="M82.45,316.53h34.37L130.09,368l13.18-51.5h34.37v84.63H156.22V336.61l-16.49,64.55h-19.4l-16.5-64.55v64.55H82.45Z"/>
      <path class="cls-6" d="M192.19,316.53h74v16.92L218.7,383h49.24v18.19H187.69V383.62l47-49H192.19Z"/>
      <path class="cls-7" d="M422.53,316.53H447l31.87,46.82V316.53h24.65v84.63H478.83l-31.7-46.47v46.47h-24.6Z"/>
      <path class="cls-8" d="M563.41,370.5V352.91h40.41V389a82.48,82.48,0,0,1-20.53,10.77,69.48,69.48,0,0,1-21.16,2.86q-15.12,0-24.57-5.15a35.24,35.24,0,0,1-14.71-15.28,50.25,50.25,0,0,1-5.22-23.38,48.64,48.64,0,0,1,5.71-24.1,37,37,0,0,1,16.74-15.56q8.61-4.12,23.15-4.13,14,0,21,2.55a27,27,0,0,1,11.55,7.88A34.8,34.8,0,0,1,602.64,339l-25.23,4.49a13.78,13.78,0,0,0-5.28-7.32,16.53,16.53,0,0,0-9.5-2.55,17.11,17.11,0,0,0-13.75,6q-5.1,6.06-5.1,19,0,13.74,5.17,19.63t14.41,5.88a27.6,27.6,0,0,0,8.36-1.26,45.69,45.69,0,0,0,9.13-4.33v-8Z"/>
      <path class="cls-9" d="M671.38,387.19H641.7l-4.13,14H610.86l31.81-84.63H671.2L703,401.16H675.61ZM666,368.89l-9.35-30.37L647.37,369Z"/>
    </g>
    <path d="M341.46,397.83V290.05a4,4,0,0,0,0-.92.65.65,0,0,0-.44-.4c-.12,0-.36.23-.4.39a4,4,0,0,0,0,.92v9.15a3.78,3.78,0,0,1-.42-.3q-3.18-3.18-6.34-6.37c-.46-.45-.9-.92-1.39-1.33-.14-.11-.44,0-.67,0a2.18,2.18,0,0,0,0,.63c.05.15.23.26.36.38,2.62,2.63,5.24,5.27,7.88,7.87a1.7,1.7,0,0,1,.54,1.35q0,24.75,0,49.5v.9c-.28-.23-.44-.34-.57-.47-.84-.83-1.64-1.7-2.51-2.49a2.14,2.14,0,0,1-.75-1.74q0-20.49,0-41a2.19,2.19,0,0,0-.7-1.68c-2.31-2.29-4.59-4.61-6.88-6.92-1.59-1.6-3.17-3.21-4.79-4.77-.19-.19-.6-.16-.9-.22.09.27.1.62.28.81,1.18,1.24,2.4,2.45,3.6,3.67a7.31,7.31,0,0,1,.48.58H315.72c-.22.9.35.83.83.83,3.85,0,7.69,0,11.54,0a1.84,1.84,0,0,1,1.18.49q3.11,3,6.11,6.17a1.75,1.75,0,0,1,.45,1.06c0,2.05,0,4.1,0,6.15a3.47,3.47,0,0,1-.12.54c-3.57-3.59-7.05-7.1-10.55-10.59-.29-.29-.59-1-1.08-.49s.17.81.45,1.09c3.62,3.63,7.25,7.24,10.86,10.88a1.69,1.69,0,0,1,.42,1.06c0,2.67,0,5.33,0,8,0,.24,0,.49-.06.85-.22-.19-.36-.29-.48-.41-1-1-1.91-1.92-2.9-2.85-.17-.17-.51-.16-.77-.23.06.28,0,.65.19.82q1.7,1.78,3.46,3.49a1.65,1.65,0,0,1,.55,1.34q0,9.81,0,19.61v1.75c-.28-.26-.43-.39-.56-.53-1.49-1.49-3-3-4.46-4.45a1.69,1.69,0,0,1-.57-1.34q0-11.61,0-23.22a2.11,2.11,0,0,0-.55-1.32c-2.76-2.82-5.57-5.59-8.36-8.38-2.05-2.05-4.09-4.1-6.15-6.13-.19-.18-.56-.19-.84-.28.07.31.13.61.22.92,0,.06.1.11.15.16q7.13,7.11,14.23,14.24a1.65,1.65,0,0,1,.43,1.06c0,4.15,0,8.3.05,12.45a3.08,3.08,0,0,1-.13.59c-1.75-1.77-3.4-3.44-5.09-5.08-.22-.22-.79-.44-.92-.33-.44.37,0,.66.28.92,1.73,1.74,3.46,3.49,5.21,5.21a1.83,1.83,0,0,1,.64,1.46c0,2.31,0,4.61,0,6.92a3,3,0,0,1-.1.55c-.27-.24-.46-.4-.64-.58-2.9-2.9-5.79-5.81-8.7-8.69a2,2,0,0,1-.65-1.61c0-6.12,0-12.24,0-18.37,0-.35.15-.88-.42-.9s-.47.49-.47.85c0,2.13,0,4.26,0,6.38,0,.19,0,.38,0,.7-.31-.28-.52-.46-.71-.66-2.77-2.77-5.53-5.55-8.32-8.31-.28-.28-.59-1-1.07-.52s.16.86.46,1.16q4.51,4.56,9.08,9.07a1.77,1.77,0,0,1,.61,1.4c0,2.79,0,5.59,0,8.38,0,.21,0,.42-.05.74-.25-.2-.4-.3-.52-.42l-12-12a8.86,8.86,0,0,0-1-.89c-.14-.09-.41,0-.62,0a2.43,2.43,0,0,0,0,.61c.06.16.23.27.36.4l16.52,16.5a4.76,4.76,0,0,1,.37.49c-.23,0-.33.06-.43.06-3.3,0-6.61,0-9.91,0a1.91,1.91,0,0,1-1.47-.65q-3.87-3.9-7.78-7.76c-.2-.19-.59-.2-.89-.3.09.3.09.69.29.89,2.15,2.19,4.33,4.36,6.49,6.53.37.37.73.76,1.18,1.23l-.44,0h-7.45a2.26,2.26,0,0,0-.69,0c-.18.07-.31.27-.46.41.16.14.29.36.47.4a3.51,3.51,0,0,0,.92.05c6.79,0,13.58,0,20.37,0a1.91,1.91,0,0,1,1.23.4q8.56,8.49,17.06,17.05a1.89,1.89,0,0,1,.48,1.2c0,2.92,0,5.84,0,8.76,0,.19-.05.38-.08.67-.26-.23-.43-.37-.59-.53q-9.78-9.77-19.55-19.56a1.83,1.83,0,0,0-1.41-.6c-3.87,0-7.74,0-11.61,0a1.7,1.7,0,0,1-1.34-.56c-1.56-1.59-3.14-3.16-4.72-4.73a1.72,1.72,0,0,0-.46-.4.41.41,0,0,0-.57.57,3.91,3.91,0,0,0,.61.68c1.47,1.47,3,2.89,4.38,4.42a2.69,2.69,0,0,0,2.21.92q5.63-.06,11.23,0a2,2,0,0,1,1.17.51c1.22,1.14,2.37,2.34,3.56,3.51.69.67,1.41,1.31,2.11,2l-.15.23H304.71a15.85,15.85,0,0,0-1.69,0c-.21,0-.38.29-.57.45a2.32,2.32,0,0,0,.54.42,1.78,1.78,0,0,0,.61,0q11.07,0,22.14,0a1.71,1.71,0,0,1,1.09.37q6.69,6.63,13.32,13.3a1.5,1.5,0,0,1,.39.94c0,1.71,0,3.43,0,5.15a4.35,4.35,0,0,1-.09.55l-.42-.39-7.23-7.21c-.24-.23-.5-.69-.85-.25-.12.15,0,.68.22.88,2.64,2.68,5.32,5.32,8,8a1.42,1.42,0,0,1,.39.91c0,2.17,0,4.35,0,6.53v.87c-.24-.19-.38-.28-.5-.4q-7.12-6.89-14.22-13.79a1.8,1.8,0,0,1-.48-1.11c0-3,0-6,0-9.08a2.21,2.21,0,0,0-.05-.68.5.5,0,0,0-.37-.29.48.48,0,0,0-.4.25,2.4,2.4,0,0,0-.08.76c0,2.66,0,5.33,0,8,0,.19,0,.38-.06.83-.36-.42-.56-.68-.79-.91-1.93-1.94-3.85-3.89-5.83-5.8a2.06,2.06,0,0,0-1.26-.51c-3.23,0-6.46,0-9.69,0-.13,0-.28,0-.38,0a2.88,2.88,0,0,0-.45.41c.14.14.27.34.44.4a2.38,2.38,0,0,0,.76,0c3,0,6,0,9.07,0a1.55,1.55,0,0,1,1,.39c3.44,3.4,6.85,6.83,10.27,10.26.2.2.39.43.71.78H317.28a1.77,1.77,0,0,0-.61,0c-.17.07-.42.27-.41.4s.23.37.4.44a2,2,0,0,0,.69,0c3.74,0,7.48,0,11.22,0a1.74,1.74,0,0,1,1.08.41c3.45,3.28,6.87,6.59,10.32,9.87a1.84,1.84,0,0,1,.6,1.47c0,5.48,0,11,0,16.44h.9C341.45,398.61,341.46,398.22,341.46,397.83Z"/>
    <path d="M355.92,350.77q7.54-7.56,15.1-15.1a1.71,1.71,0,0,1,1.07-.43c2,0,4.05,0,6.07,0h14.92c.37,0,.93.14.92-.47,0-.14-.57-.39-.88-.4-2.38,0-4.77,0-7.15,0-.26,0-.51,0-.92-.08.25-.27.36-.41.49-.53l6.9-6.9a2.49,2.49,0,0,0,.52-.56.65.65,0,0,0,0-.58.7.7,0,0,0-.6,0,1.54,1.54,0,0,0-.44.41c-2.54,2.53-5.09,5.06-7.6,7.61a1.86,1.86,0,0,1-1.48.62c-3.18,0-6.36,0-9.54,0-.24,0-.49,0-.77,0,.05-.12.06-.21.11-.25l11.3-11.28c1.87-1.87,3.74-3.72,5.59-5.61.18-.18.18-.55.26-.83-.3.07-.61.14-.91.23,0,0-.07.07-.1.1l-12.61,12.61a3.75,3.75,0,0,1-.46.33c0-.22-.07-.34-.07-.46,0-3,0-5.95,0-8.92a1.6,1.6,0,0,1,.48-1c3.05-3.08,6.12-6.13,9.18-9.19.31-.31,1-.65.47-1.15s-.81.22-1.1.5c-2.29,2.27-4.55,4.57-6.83,6.85-.69.69-1.4,1.36-2.23,2.17v-1.13c0-2.1,0-4.2,0-6.3,0-.2-.26-.4-.4-.59-.14.19-.41.38-.41.58,0,3-.05,6-.05,9,0,3.36,0,6.72,0,10.07a1.66,1.66,0,0,1-.47,1.06c-2.67,2.72-5.38,5.41-8.08,8.11l-1.44,1.41a2.16,2.16,0,0,1-.09-.33c0-2.53,0-5.07,0-7.61A1.19,1.19,0,0,1,365,332c1.85-1.88,3.73-3.73,5.57-5.62.18-.18.16-.55.24-.83-.29.06-.66,0-.85.2-.67.59-1.28,1.26-1.91,1.89l-3.36,3.33c0-.43,0-.67,0-.91,0-4,0-8,0-12a1.65,1.65,0,0,1,.5-1.28c3.35-3.33,6.67-6.67,10-10,1.47-1.47,2.95-2.92,4.39-4.41.16-.16.14-.5.2-.76-.27.06-.59,0-.78.19a12.27,12.27,0,0,0-1.16,1.12c-4.42,4.42-8.83,8.85-13.28,13.24a2.47,2.47,0,0,0-.78,2q0,11.37,0,22.75a1.89,1.89,0,0,1-.39,1.17c-1,1.09-2.07,2.12-3.12,3.17l-1.94,1.89a2.5,2.5,0,0,1-.09-.34q0-10.62,0-21.22a1.27,1.27,0,0,1,.35-.79c1.23-1.27,2.5-2.5,3.72-3.78.14-.16.07-.52.09-.79-.24.06-.54.05-.71.2-.54.47-1,1-1.53,1.51l-1.93,1.9v-1c0-2.64,0-5.28,0-7.92a1.43,1.43,0,0,1,.47-1.13q4.53-4.49,9-9c.72-.72,1.46-1.44,2.14-2.19.15-.16.1-.49.13-.74a6.13,6.13,0,0,0-.73.11c-.1,0-.18.17-.27.26l-10,10.06-.62.57c-.05-.16-.09-.23-.1-.3,0-2.21,0-4.41,0-6.61a1.15,1.15,0,0,1,.32-.65c2-2,4-4,6-6.05a2.4,2.4,0,0,1,1.9-.76c3.66,0,7.32,0,11,0a1.77,1.77,0,0,0,.61,0c.15-.07.35-.27.35-.41a.57.57,0,0,0-.35-.4,1.53,1.53,0,0,0-.61,0l-10.45,0c-.19,0-.38,0-.79-.07,1.38-1.35,2.63-2.56,3.84-3.8.16-.16.13-.5.19-.76-.25.05-.59,0-.75.18q-5.87,5.81-11.68,11.66a1.94,1.94,0,0,0-.48,1.2c0,13-.07,26.09.05,39.13,0,2.25-.48,3.94-2.29,5.27a17.83,17.83,0,0,0-1.56,1.51c0-.41,0-.63,0-.85q0-24.89,0-49.75a1.75,1.75,0,0,1,.48-1.11c2.62-2.67,5.27-5.31,7.92-7.95.07-.08.18-.14.21-.22.08-.26.14-.53.2-.8-.26,0-.54.08-.79.15s-.19.17-.28.26l-7,6.95c-.21.22-.46.41-.79.71,0-3.3,0-6.39,0-9.49,0-.36.29-1-.41-1s-.43.66-.43,1c0,4.23,0,8.46,0,12.69V399h.85c0-5.52,0-11.05,0-16.57a1.93,1.93,0,0,1,.5-1.2c3.4-3.32,6.85-6.61,10.26-9.93a1.78,1.78,0,0,1,1.36-.52q5.58,0,11.15,0a2.12,2.12,0,0,0,.76-.06.58.58,0,0,0,.32-.45c0-.13-.23-.31-.39-.37a2,2,0,0,0-.61,0H366.79c-.26,0-.52,0-.85,0a2.4,2.4,0,0,1,.19-.31q5.37-5.39,10.76-10.75a1.45,1.45,0,0,1,1-.33c3.1,0,6.2,0,9.3,0a1.48,1.48,0,0,0,.6,0c.18-.09.29-.31.42-.47a1.83,1.83,0,0,0-.44-.35,1.54,1.54,0,0,0-.53,0c-3.25,0-6.51,0-9.76,0a1.72,1.72,0,0,0-1.05.45c-1.23,1.17-2.41,2.38-3.61,3.57l-3.17,3.15v-1.05c0-2.69,0-5.38,0-8.07,0-.23-.26-.46-.4-.69a3.56,3.56,0,0,0-.47.65,2.25,2.25,0,0,0,0,.69c0,2.89,0,5.79,0,8.69a1.82,1.82,0,0,1-.44,1.12q-1.61,1.72-3.3,3.33c-2.67,2.54-5.38,5-8.05,7.58-1.1,1.06-2.15,2.18-3.22,3.26l-.19-.1c0-2.49,0-5,0-7.45a1.17,1.17,0,0,1,.38-.7c2.41-2.44,4.84-4.86,7.27-7.29a12.79,12.79,0,0,0,1-1,.64.64,0,0,0,0-.6c-.08-.1-.41-.07-.58,0a2.74,2.74,0,0,0-.5.47l-7,7a4.41,4.41,0,0,1-.51.39c0-2,0-3.86,0-5.73a1.6,1.6,0,0,1,.46-1q6.5-6.54,13-13.05a1.74,1.74,0,0,1,1.34-.59q11.07,0,22.14,0c.39,0,1.1.3,1.08-.44s-.7-.44-1.1-.44H369.39c-.24,0-.47,0-.8,0a4,4,0,0,1,.38-.46c1.72-1.72,3.46-3.42,5.16-5.16a1.86,1.86,0,0,1,1.5-.59q5.79,0,11.6,0a1.61,1.61,0,0,0,1-.36c1.8-1.75,3.57-3.53,5.33-5.33.17-.18.15-.55.22-.84-.27.07-.63.06-.81.23-1.67,1.63-3.3,3.3-5,4.91a1.84,1.84,0,0,1-1.11.51c-3.49,0-7,.08-10.46,0a4.39,4.39,0,0,0-3.61,1.47c-6.22,6.34-12.53,12.59-18.82,18.87a5.81,5.81,0,0,1-.54.42c0-3.06,0-6,0-8.9a2.5,2.5,0,0,1,.93-2.2A19.64,19.64,0,0,0,355.92,350.77Z"/>
  </g>
</svg>
